<?xml version="1.0" standalone="no"?>
<!DOCTYPE svg PUBLIC "-//W3C//DTD SVG 20010904//EN"
 "http://www.w3.org/TR/2001/REC-SVG-20010904/DTD/svg10.dtd">
<svg version="1.0" xmlns="http://www.w3.org/2000/svg"
 width="576.000000pt" height="576.000000pt" viewBox="0 0 576.000000 576.000000"
 preserveAspectRatio="xMidYMid meet">
<metadata>
Created by potrace 1.11, written by Peter Selinger 2001-2013
</metadata>
<g transform="translate(0.000000,576.000000) scale(0.100000,-0.100000)"
fill="#000000" stroke="none">
<path d="M706 5678 c3 -44 6 -84 6 -87 1 -3 -1 -26 -5 -51 -4 -25 -9 -106 -11
-180 -3 -74 -8 -148 -11 -165 -4 -16 -8 -174 -10 -350 -2 -176 -7 -358 -12
-405 -15 -160 -7 -929 12 -1085 3 -22 7 -60 10 -85 5 -40 18 -118 29 -175 2
-11 10 -40 17 -65 16 -58 17 -61 23 -85 15 -66 102 -314 137 -392 10 -24 19
-46 19 -49 0 -3 6 -20 14 -37 7 -18 31 -72 52 -122 94 -223 288 -563 406 -715
51 -65 172 -180 189 -180 5 0 9 -5 9 -11 0 -11 -112 -7 -170 6 -41 9 -72 14
-125 20 -164 18 -565 142 -565 175 0 27 127 103 192 114 33 6 37 10 36 32 -2
21 -14 31 -65 54 -120 55 -194 115 -247 204 -28 47 -33 62 -26 84 5 15 16 52
24 82 20 71 79 148 154 199 18 12 30 26 27 31 -5 9 -112 6 -160 -5 -63 -13
-162 -49 -196 -71 -42 -26 -82 -72 -105 -120 -25 -53 -15 -205 20 -309 38
-109 38 -135 4 -293 -32 -148 -32 -148 -43 -207 -4 -22 -9 -51 -12 -65 -3 -14
-6 -60 -7 -102 0 -61 -3 -75 -13 -66 -10 8 -13 -6 -13 -70 0 -68 2 -80 15 -76
11 5 15 -1 15 -18 0 -80 137 -242 250 -296 62 -29 190 -69 248 -77 15 -3 38
-7 51 -9 34 -8 116 -16 196 -21 39 -2 90 -8 115 -14 50 -11 207 -17 216 -8 3
3 6 82 6 176 1 141 -2 174 -15 189 -18 20 -34 79 -29 108 2 16 16 26 55 38 52
16 196 24 216 12 17 -11 53 -18 94 -18 31 0 44 6 68 33 43 48 72 46 144 -11
203 -160 564 -364 778 -441 20 -7 37 -15 37 -19 0 -12 -196 -11 -235 2 -22 8
-56 13 -75 12 -97 -6 -199 -6 -209 1 -7 4 -43 8 -81 10 -37 1 -73 6 -79 10 -7
3 -35 9 -64 12 -29 3 -57 10 -64 15 -11 9 -21 11 -98 23 -22 3 -58 10 -80 16
-22 6 -51 13 -64 16 -13 2 -34 9 -45 15 -12 6 -23 11 -26 11 -6 -1 -2 -2 -116
34 l-92 29 0 -66 c0 -36 -1 -69 -2 -75 -1 -5 -2 -14 0 -20 7 -36 -1 -387 -9
-415 -6 -19 -11 -36 -11 -37 0 -9 175 -73 275 -101 70 -20 204 -47 283 -56 23
-3 51 -10 61 -16 11 -5 40 -10 65 -10 24 0 55 -4 68 -9 13 -5 66 -12 118 -15
52 -4 112 -10 132 -15 37 -9 149 -12 448 -14 133 0 219 4 310 17 19 3 58 8 85
10 28 3 61 8 75 11 14 3 41 8 60 11 19 3 58 15 85 25 28 10 63 19 79 19 15 0
90 20 165 44 75 25 204 66 286 92 83 26 169 56 193 66 l42 20 0 309 0 308 -32
-6 c-18 -3 -76 -21 -128 -40 -52 -19 -165 -59 -250 -88 -85 -29 -186 -64 -225
-78 -38 -14 -94 -28 -123 -31 -29 -3 -57 -8 -61 -11 -10 -6 -67 -12 -176 -20
-44 -3 -107 -10 -140 -15 -75 -12 -285 -13 -285 -1 0 4 19 15 43 23 33 12 172
56 197 63 3 1 14 5 25 10 169 68 266 120 468 249 66 42 121 76 123 76 3 0 17
11 32 25 44 42 114 83 153 90 27 5 51 0 97 -19 70 -30 94 -32 148 -12 22 7 55
12 74 11 19 -1 52 2 73 7 31 7 43 4 76 -16 37 -24 38 -26 31 -68 -7 -52 -34
-93 -72 -108 -15 -7 -28 -17 -30 -23 -2 -7 -4 -64 -3 -128 1 -130 14 -168 60
-170 14 -1 28 -2 33 -3 103 -25 127 -27 171 -11 20 6 65 15 101 19 35 3 91 13
125 20 33 8 83 17 110 20 116 12 351 88 363 118 2 4 8 8 14 8 21 0 98 72 123
114 45 78 69 240 50 346 -8 45 -12 75 -20 127 -5 39 -18 99 -46 217 -8 37 -9
63 0 100 6 28 11 74 13 101 1 39 10 63 40 109 59 89 68 178 29 279 -13 32 -32
67 -44 78 -46 43 -198 104 -287 116 -19 3 -54 8 -77 13 -24 4 -43 5 -43 3 0
-12 28 -55 75 -113 89 -110 105 -158 81 -242 -26 -87 -120 -168 -248 -213
-112 -40 -111 -59 7 -119 39 -19 83 -45 98 -58 l28 -23 -21 -23 c-40 -42 -95
-69 -189 -91 -51 -12 -111 -24 -132 -26 -22 -2 -43 -6 -48 -9 -4 -3 -43 -8
-87 -11 -98 -7 -195 -22 -257 -40 -26 -7 -55 -12 -65 -10 -9 2 -25 4 -35 4
-28 1 -17 17 94 138 19 21 55 64 79 96 25 31 48 57 52 57 5 0 8 6 8 14 0 8 4
16 8 18 12 4 171 232 236 338 92 149 186 338 268 540 6 14 16 36 23 50 19 37
70 195 100 306 14 55 35 128 45 164 19 65 43 173 54 241 3 20 10 49 16 63 5
15 8 31 5 36 -3 5 -1 11 3 14 5 3 10 41 11 83 2 91 8 144 21 193 5 20 8 65 5
100 -2 36 1 83 7 105 6 23 12 139 13 270 1 127 5 266 10 310 5 44 9 316 9 605
l1 525 -2267 3 -2267 2 5 -82z m454 -122 c58 -9 492 -12 1962 -11 1038 0 1893
-2 1900 -5 10 -4 13 -60 13 -238 l0 -232 -1450 3 c-797 2 -1468 6 -1490 11
-22 4 -311 7 -642 8 l-602 1 1 120 c0 65 5 138 10 160 5 23 11 72 12 108 2 37
6 71 9 76 9 14 190 14 277 -1z m202 -555 c4 0 19 -18 33 -40 22 -32 25 -45 19
-82 -4 -24 -11 -52 -16 -61 -21 -42 -117 -65 -155 -36 -16 11 -18 26 -17 108
1 52 2 100 3 106 1 8 90 12 133 5z m326 -82 c3 -52 -1 -72 -20 -106 -22 -42
-24 -43 -72 -43 -42 0 -54 4 -73 27 -21 23 -23 36 -22 115 l1 88 29 0 c27 0
29 -2 30 -42 2 -126 1 -123 34 -123 l30 0 0 75 c0 90 8 107 38 87 18 -12 23
-26 25 -78z m245 29 c17 -16 17 -17 -3 -28 -17 -9 -26 -7 -50 10 -17 12 -30
18 -31 13 -5 -40 -4 -94 2 -105 6 -9 14 -7 32 10 29 27 43 28 57 3 17 -33 12
-47 -27 -67 l-37 -20 -54 29 c-38 21 -51 34 -48 45 3 10 8 44 11 77 4 33 8 61
10 63 2 2 20 10 41 17 34 12 39 11 58 -9 11 -11 29 -29 39 -38z m227 46 c12
-12 64 -163 73 -211 5 -26 3 -31 -8 -26 -8 3 -15 9 -15 14 0 5 -6 9 -12 9 -7
0 -24 9 -38 19 -24 19 -24 19 -66 -10 -24 -16 -45 -29 -47 -29 -15 0 16 119
52 203 19 45 38 54 61 31z m-1032 -24 c-2 -29 -3 -30 -56 -30 -33 0 -51 -4
-47 -10 3 -5 23 -10 43 -10 45 0 57 -8 58 -37 1 -20 -4 -23 -37 -24 -51 -2
-56 -3 -65 -11 -4 -5 -1 -8 7 -9 40 -3 85 -6 90 -8 3 0 5 -13 4 -28 -1 -26 -5
-28 -45 -31 -25 -1 -56 4 -70 11 -24 12 -25 17 -27 115 l-2 102 75 0 74 0 -2
-30z m1936 5 c8 -8 25 -35 37 -60 26 -52 38 -48 42 16 2 37 5 44 22 44 18 0
20 -8 23 -80 4 -104 -1 -122 -32 -122 -19 0 -30 11 -51 48 -35 65 -53 64 -50
-1 2 -43 0 -50 -16 -50 -22 0 -21 -4 -23 115 -1 102 12 126 48 90z m799 -3 c5
-7 6 -20 3 -30 -5 -14 -16 -18 -51 -17 -32 1 -45 -2 -45 -12 0 -12 11 -15 73
-15 25 -1 27 -4 24 -32 -3 -30 -5 -31 -50 -31 -29 0 -47 -4 -47 -11 0 -6 10
-11 23 -11 75 -1 77 -2 77 -33 l0 -30 -74 0 c-49 0 -78 4 -83 13 -4 6 -8 57
-8 112 l0 100 50 5 c77 8 99 6 108 -8z m183 -48 c32 -55 41 -49 43 29 1 19 6
27 19 27 35 0 42 -21 42 -128 l0 -103 -32 3 c-28 3 -37 10 -57 51 -29 58 -34
55 -40 -18 -1 -6 -14 -19 -31 -28 l-30 -18 0 120 c0 124 5 139 42 119 10 -4
29 -29 44 -54z m-1576 42 c0 -17 -24 -28 -45 -20 -12 5 -15 -10 -17 -83 -3
-80 -5 -88 -23 -91 -20 -3 -21 2 -20 80 0 59 -4 83 -12 84 -7 1 -22 2 -33 3
-13 1 -20 8 -20 21 0 18 7 20 85 20 66 0 85 -3 85 -14z m145 -93 l1 -103 -28
0 -27 0 0 106 0 105 27 -3 27 -3 0 -102z m270 87 c3 -11 10 -20 15 -20 7 0 16
-21 25 -57 2 -7 -8 -35 -22 -63 l-25 -50 -62 0 -63 0 -27 50 c-15 27 -27 52
-27 55 0 3 12 28 27 55 l27 50 63 0 c54 0 64 -3 69 -20z m709 -15 c25 -33 26
-34 7 -44 -14 -8 -29 -7 -53 3 -18 7 -39 11 -45 9 -20 -7 -15 -58 8 -87 l21
-27 12 22 c15 31 29 33 57 10 23 -19 24 -19 5 -40 -15 -17 -31 -21 -75 -21
-80 0 -85 6 -86 92 -1 66 1 75 25 95 16 14 38 22 61 23 30 0 41 -6 63 -35z
m794 6 c-2 -20 -9 -27 -30 -29 -26 -3 -28 -7 -29 -50 -3 -140 -6 -154 -29
-127 -7 9 -14 47 -15 86 -2 39 -5 72 -7 74 -2 3 -15 6 -29 8 -18 3 -25 11 -27
33 l-3 30 86 1 86 0 -3 -26z m255 3 c26 -17 36 -31 33 -42 -16 -56 -17 -93 -2
-123 20 -41 21 -39 -14 -39 -22 0 -33 7 -44 28 -17 33 -52 66 -59 55 -3 -4 -8
-25 -12 -46 -4 -21 -13 -37 -21 -37 -16 0 -16 -2 -16 100 0 141 -4 130 50 130
34 0 58 -7 85 -26z m285 -17 c3 -13 -4 -17 -27 -18 -17 -1 -35 -3 -41 -4 -5
-1 -17 -3 -26 -4 -24 -2 -12 -36 14 -37 12 -1 36 -2 52 -3 22 -1 30 -6 30 -19
0 -15 -9 -19 -47 -21 -42 -1 -62 -12 -63 -33 0 -5 25 -8 55 -8 48 0 55 -2 55
-20 0 -18 -7 -20 -74 -20 l-73 0 -1 103 0 103 71 -1 c60 0 72 -3 75 -18z
m-3970 -276 c18 -9 66 -5 91 8 20 11 1988 7 2021 -4 14 -4 77 -9 140 -10 63
-1 122 -3 130 -4 13 -1 15 -32 14 -223 -1 -123 -2 -228 -3 -234 -1 -11 -41
-20 -136 -31 -44 -5 -80 -11 -80 -13 0 -1 -7 -3 -15 -5 -320 -70 -543 -203
-635 -378 -11 -21 -27 -45 -36 -53 -14 -12 -19 -11 -45 14 -17 15 -39 45 -49
67 -41 90 -137 280 -147 293 -14 16 -188 132 -235 156 -18 9 -45 18 -60 21
-16 2 -44 8 -63 12 -46 11 -77 10 -120 -4 -19 -7 -62 -12 -95 -11 -33 0 -75
-3 -92 -6 -18 -3 -47 -8 -65 -11 -17 -3 -36 -9 -41 -12 -6 -3 -100 -5 -210 -4
-213 2 -228 -2 -158 -43 54 -32 301 -26 301 7 0 5 9 -2 20 -16 24 -30 67 -30
129 0 37 19 57 21 189 18 81 -1 162 -7 179 -13 78 -25 209 -99 252 -141 46
-46 54 -60 130 -221 36 -77 105 -172 205 -280 18 -19 41 -48 51 -64 17 -26 17
-29 2 -37 -9 -5 -22 -15 -29 -23 -7 -7 -24 -19 -37 -25 -22 -12 -28 -9 -90 51
-36 36 -88 82 -116 104 -56 44 -164 104 -189 104 -9 0 -16 4 -16 8 0 5 13 7
29 4 22 -3 29 1 34 18 11 42 0 49 -71 49 -92 -2 -92 -2 -92 22 0 11 -15 34
-33 52 -19 18 -41 44 -50 59 -17 27 -18 27 -61 14 l-43 -13 -37 43 -37 43 -66
-3 c-47 -2 -69 1 -79 12 -19 18 -13 23 33 32 l38 7 -28 11 c-16 7 -26 16 -23
21 3 5 -97 9 -237 9 -133 0 -246 1 -252 2 -5 0 4 8 20 18 23 12 58 17 151 18
91 1 130 6 157 19 20 9 35 21 32 26 -14 21 -257 30 -423 15 -70 -7 -71 -6 -65
16 19 81 19 82 -22 75 -50 -8 -85 -33 -85 -59 0 -12 14 -36 30 -52 17 -17 50
-52 75 -78 48 -51 73 -67 152 -92 29 -10 92 -37 140 -61 112 -55 448 -186 488
-191 17 -1 38 -3 47 -3 10 -1 22 -10 28 -21 11 -20 8 -20 -117 -18 -70 1 -146
7 -168 13 -22 7 -71 11 -110 10 -38 -1 -84 4 -101 10 -41 17 -61 4 -69 -45 -4
-22 -15 -50 -25 -63 l-19 -24 52 -13 c29 -7 58 -17 65 -23 6 -5 12 -6 12 -3 0
4 9 2 20 -4 17 -9 20 -8 20 10 0 13 -13 28 -35 41 l-35 21 21 26 c23 30 40 30
142 7 31 -7 57 -11 57 -9 0 3 10 -1 23 -7 14 -8 77 -13 172 -14 115 -2 161 -6
195 -19 26 -10 82 -19 131 -21 106 -4 129 -15 224 -105 39 -37 96 -83 126
-104 l55 -36 51 15 c27 8 65 28 83 44 19 16 51 34 72 40 37 12 39 11 107 -41
38 -29 72 -59 76 -67 3 -8 -3 -24 -14 -35 -23 -25 -38 -76 -22 -76 6 0 11 5
11 10 0 6 6 10 14 10 8 0 16 4 18 8 5 12 118 96 168 124 46 26 108 42 168 41
17 0 32 3 32 8 0 10 -29 39 -39 39 -18 0 -53 41 -61 72 -9 34 -21 92 -24 118
-3 27 -15 37 -60 50 -91 25 -180 12 -256 -37 l-35 -23 -4 22 c-4 29 54 81 112
101 23 7 86 14 139 15 54 1 108 6 120 13 31 16 68 50 68 63 1 11 124 92 149
98 19 4 24 -65 8 -112 -8 -24 -12 -141 -12 -375 l-1 -340 -44 -17 c-25 -10
-73 -28 -108 -42 -71 -27 -143 -78 -167 -119 -15 -25 -20 -27 -48 -20 -18 4
-129 8 -247 8 -245 0 -298 -10 -456 -86 -101 -49 -151 -85 -267 -198 l-89 -86
6 -55 c13 -121 18 -156 28 -174 6 -11 12 -40 15 -64 2 -25 9 -54 15 -65 5 -11
12 -34 14 -51 4 -26 25 -149 29 -166 1 -3 5 -23 9 -45 5 -22 17 -69 28 -105
10 -36 21 -83 24 -105 8 -67 34 -196 54 -270 10 -38 21 -97 25 -130 3 -33 8
-71 11 -84 l5 -24 -35 21 c-70 41 -373 291 -428 353 -31 35 -88 105 -128 154
-39 50 -82 104 -96 120 -62 75 -191 281 -258 414 -159 314 -233 526 -308 886
-5 28 -14 68 -19 90 -5 22 -12 51 -15 65 -3 14 -10 42 -15 63 -6 22 -12 76
-15 120 -2 45 -6 96 -9 112 -3 17 -6 233 -6 480 -1 572 7 625 99 610 18 -3 41
-9 50 -14z m3612 -15 c28 -7 123 -11 249 -11 l204 1 -6 -360 c-3 -199 -8 -373
-11 -389 -14 -69 -26 -147 -31 -202 -3 -34 -13 -88 -21 -120 -8 -33 -17 -80
-20 -105 -3 -25 -18 -94 -34 -155 -16 -60 -31 -126 -34 -145 -6 -41 -156 -464
-210 -595 -87 -209 -213 -423 -317 -537 l-25 -28 -17 52 c-9 29 -18 64 -21 78
-3 14 -12 50 -21 80 -9 30 -18 62 -20 70 -28 110 -37 149 -41 173 -2 15 -8 37
-14 47 -6 11 -9 20 -6 20 3 0 0 15 -5 33 -5 17 -12 46 -15 62 -2 17 -7 38 -10
47 -3 9 -6 25 -8 35 -2 10 -14 65 -26 123 -12 58 -24 116 -27 129 -2 14 -6 27
-8 31 -2 4 -7 29 -11 56 -3 27 -10 59 -15 71 -5 13 -5 23 -1 23 4 0 2 4 -5 8
-7 4 -66 7 -132 6 l-121 -1 -1 36 c-4 121 0 231 9 247 6 11 9 83 8 168 -2 82
1 172 6 200 5 28 11 139 13 246 2 107 7 206 10 220 3 14 8 95 10 180 3 85 7
164 10 176 4 20 9 21 257 19 139 0 267 3 283 8 89 26 87 26 175 3z m-1303
-575 c-3 -22 -21 -35 -120 -86 -119 -61 -166 -94 -185 -130 -7 -14 -33 -27
-74 -39 -35 -10 -76 -22 -92 -27 -16 -5 -31 -7 -33 -5 -6 5 39 75 67 104 12
12 40 34 63 49 23 14 58 41 77 60 49 47 122 94 178 113 42 15 51 15 85 2 31
-13 37 -19 34 -41z m-347 -51 c-8 -5 -19 -10 -25 -10 -5 0 -3 5 5 10 8 5 20
10 25 10 6 0 3 -5 -5 -10z m-36 -19 c10 -15 -87 -82 -100 -69 -11 12 18 50 49
63 38 17 44 18 51 6z m-1349 -96 c0 -15 -8 -19 -43 -19 -51 -1 -60 7 -32 27
29 20 75 16 75 -8z m1243 16 c2 -1 -16 -24 -41 -52 -41 -47 -87 -124 -94 -159
-2 -8 -5 -37 -7 -65 -3 -27 -5 -53 -5 -57 -2 -16 -74 -8 -88 10 -19 23 -33 60
-37 94 -3 22 3 32 28 48 17 10 69 57 115 104 80 82 87 86 129 77z m182 -310
c0 -5 -15 -19 -34 -30 -58 -36 -58 -72 0 -116 33 -26 34 -28 19 -45 -10 -11
-30 -22 -46 -25 -24 -6 -38 2 -98 52 -79 65 -92 98 -43 109 15 4 52 20 82 35
53 28 120 39 120 20z m951 -606 c10 -27 28 -92 39 -145 12 -52 23 -104 26
-115 3 -11 7 -31 10 -44 3 -14 14 -56 24 -95 11 -39 21 -82 24 -96 16 -85 67
-313 92 -405 7 -27 12 -66 11 -85 -2 -34 -4 -36 -72 -59 -47 -15 -100 -24
-160 -27 -96 -4 -117 -7 -174 -25 -36 -11 -349 -165 -426 -209 -28 -16 -60
-24 -110 -26 -151 -7 -285 -37 -459 -101 -72 -27 -175 -81 -297 -157 -40 -25
-77 -46 -81 -46 -16 0 -37 60 -62 180 -14 69 -28 141 -30 161 -3 20 -12 63
-20 97 -9 33 -16 69 -16 81 0 11 -7 41 -16 67 -9 26 -17 66 -19 88 -2 23 -21
104 -43 181 -42 147 -52 187 -50 195 1 3 -4 15 -10 26 -21 40 70 154 183 228
84 55 234 120 305 132 14 3 32 7 40 10 46 18 263 11 341 -12 8 -2 86 41 173
95 137 86 164 99 201 99 24 0 52 5 61 10 12 7 32 6 63 -4 29 -9 94 -14 173
-14 l127 0 58 35 c32 19 62 34 67 32 4 -1 17 -25 27 -52z m286 -1139 c3 -2 0
-11 -6 -18 -6 -7 -34 -42 -63 -78 -28 -36 -125 -139 -215 -229 -136 -137 -163
-160 -164 -140 -4 172 1 382 10 393 16 19 106 45 181 51 36 3 90 12 120 20 51
13 125 14 137 1z m-950 -336 c13 -24 11 -140 -3 -215 -4 -16 -6 -85 -6 -152
l-1 -121 -46 -17 c-25 -9 -111 -42 -191 -72 -80 -31 -161 -62 -180 -69 -80
-30 -121 -18 -325 90 -11 6 -94 56 -183 111 l-162 100 43 13 c24 6 99 42 168
80 111 60 167 87 279 135 40 18 257 84 298 92 15 3 38 7 52 10 14 3 60 12 104
20 43 7 81 16 84 20 14 14 57 -1 69 -25z m-2680 -257 c-3 -10 -12 -35 -21 -55
-15 -35 -15 -38 2 -47 14 -8 28 -4 56 15 l36 25 9 -22 c5 -14 3 -39 -5 -65
-13 -43 -13 -43 16 -49 15 -3 36 -15 46 -26 9 -10 25 -19 35 -19 25 0 28 -18
12 -70 -8 -25 -12 -53 -9 -62 3 -12 -2 -18 -12 -19 -46 -3 -70 6 -103 38 -34
32 -36 37 -28 71 14 62 12 65 -36 32 -41 -28 -47 -30 -65 -17 -20 14 -20 14 4
30 20 13 23 21 17 49 -9 44 -40 49 -76 11 -25 -27 -27 -27 -40 -9 -22 29 4 82
95 189 8 9 27 17 43 17 23 0 28 -4 24 -17z m4392 -183 c17 -52 31 -99 31 -106
0 -15 -47 -47 -54 -36 -4 7 -20 91 -30 161 -4 31 9 89 19 80 2 -3 18 -47 34
-99z m117 55 c-22 -16 -20 -32 4 -45 11 -6 20 -8 20 -4 0 4 9 -1 20 -11 24
-21 28 -80 6 -72 -8 3 -20 -1 -26 -9 -14 -16 -50 -19 -50 -4 0 6 7 10 15 10
26 0 16 35 -14 53 -16 9 -31 26 -34 37 -6 25 38 71 60 63 14 -6 14 -7 -1 -18z
m-469 -79 c11 -11 -18 -34 -36 -29 -14 3 -22 -4 -31 -29 -7 -18 -12 -37 -10
-43 7 -30 13 -76 11 -90 -1 -12 -50 -19 -52 -7 -1 4 -3 40 -4 79 -1 40 -3 74
-6 76 -2 1 -17 7 -33 12 -34 12 -45 32 -19 37 28 6 173 1 180 -6z m-3483 -20
l33 -14 -9 -53 c-5 -30 -12 -79 -15 -109 -4 -49 -8 -58 -35 -73 -21 -12 -34
-14 -48 -7 -10 6 -28 10 -39 10 -15 0 -23 10 -32 43 -6 23 -13 48 -15 55 -6
21 -24 3 -24 -24 0 -16 -6 -24 -17 -25 -10 0 -35 -2 -56 -3 -58 -3 -77 15 -77
75 l0 49 40 0 c41 0 54 14 22 24 -10 3 -18 14 -19 24 -1 14 6 19 28 20 22 0
37 -9 64 -41 32 -37 42 -42 78 -43 56 0 67 10 67 62 0 48 5 51 54 30z m3737
-4 c28 -19 33 -61 11 -97 -12 -20 -12 -20 -32 4 -13 15 -20 38 -20 67 0 49 4
51 41 26z m-103 -21 c18 -10 21 -19 19 -73 l-2 -61 -45 0 c-100 2 -97 1 -98
33 -1 25 3 30 23 30 16 0 22 -5 21 -17 -1 -12 6 -18 19 -18 13 0 20 7 21 20 1
38 -15 55 -51 55 -28 0 -35 4 -35 19 0 11 6 21 13 24 21 7 93 0 115 -12z
m-3480 -107 c22 -14 22 -41 0 -28 -10 6 -8 -21 5 -89 1 -8 -18 -13 -58 -14
-51 -2 -57 -1 -37 9 24 12 25 21 7 109 -4 24 -2 26 28 27 17 0 42 -6 55 -14z
m1065 -455 c24 -26 26 -33 16 -52 -7 -12 -13 -43 -15 -70 -2 -35 -11 -61 -35
-95 l-33 -48 -57 1 c-89 1 -119 37 -94 111 8 25 18 62 21 82 3 21 17 60 31 89
l24 52 57 -20 c31 -12 69 -34 85 -50z m1115 40 c7 -12 15 -46 17 -77 4 -50 8
-60 40 -87 34 -29 35 -31 20 -52 -34 -49 -84 -18 -116 70 -7 20 -19 37 -26 37
-15 0 -16 -5 -17 -75 l-1 -49 -77 -29 -78 -30 -20 24 c-35 43 -24 92 39 160
39 42 41 43 74 31 41 -15 50 -15 42 -2 -7 11 64 99 80 100 6 0 16 -9 23 -21z
m-505 -71 c18 -12 49 -40 70 -62 21 -23 35 -35 32 -28 -4 7 -8 23 -10 35 -2
12 -6 34 -9 50 -6 26 -5 27 39 27 44 0 45 -1 47 -32 0 -18 2 -37 3 -43 1 -5 5
-35 9 -65 5 -30 10 -63 12 -73 2 -12 -8 -22 -33 -32 -47 -20 -49 -20 -63 15
-7 16 -27 38 -46 49 l-34 20 0 -59 c0 -33 -2 -60 -5 -60 -9 0 -55 24 -56 29
-1 3 -2 17 -4 31 -1 14 -6 39 -9 55 -10 45 -16 135 -9 151 7 20 30 17 66 -8z
m-237 -54 c19 -45 18 -65 -4 -71 -30 -7 -28 -71 3 -113 l26 -35 -57 -3 c-31
-2 -58 -2 -60 0 -2 2 3 26 10 53 11 43 10 53 -2 73 -14 21 -13 29 2 76 14 47
20 54 42 54 20 0 29 -8 40 -34z m-255 -4 c-10 -44 -17 -121 -11 -130 10 -16
47 30 61 78 7 23 16 43 21 43 28 4 34 3 40 -11 19 -43 -12 -186 -39 -176 -7 3
-35 8 -60 12 -60 8 -93 20 -93 35 0 6 7 38 15 71 9 33 13 67 10 77 -4 15 0 18
27 17 24 -1 32 -5 29 -16z"/>
<path d="M2061 5367 c1 -78 -2 -103 -16 -148 -6 -17 -1 -19 69 -17 67 1 78 4
100 27 24 25 25 29 15 96 -5 39 -11 75 -13 81 -4 10 -70 30 -87 26 -4 -1 -21
3 -37 8 l-31 8 0 -81z m104 -52 c0 -46 -2 -49 -25 -49 -23 -1 -25 3 -28 52 -3
53 -3 53 24 50 26 -3 28 -6 29 -53z"/>
<path d="M1014 5412 c-26 -25 -29 -34 -29 -94 0 -72 2 -76 55 -106 l35 -19 35
26 c43 32 50 41 43 57 -3 9 -11 10 -30 3 -13 -5 -28 -7 -32 -5 -4 3 -13 1 -21
-4 -14 -9 -42 20 -46 48 -4 21 35 54 54 47 41 -16 72 -17 73 -4 0 8 2 22 4 31
2 12 -7 20 -28 27 -75 22 -83 22 -113 -7z"/>
<path d="M1296 5433 c-3 -4 -6 -58 -6 -120 0 -104 2 -114 18 -111 12 2 19 16
22 43 4 34 8 39 32 40 38 2 47 -6 52 -46 3 -22 9 -33 17 -31 22 6 24 15 23
119 -2 121 -1 113 -19 113 -14 0 -29 -34 -24 -56 6 -31 -4 -34 -82 -25 -4 1
-5 16 -4 35 4 32 -13 54 -29 39z"/>
<path d="M1783 5432 c-22 -3 -22 -7 -20 -115 l2 -112 83 0 82 -1 0 32 c0 31 0
31 -52 30 l-53 -1 -3 80 c-2 44 -6 82 -10 85 -4 4 -17 4 -29 2z"/>
<path d="M1590 5315 l0 -115 25 0 c14 0 26 3 26 8 1 4 2 55 3 115 l2 107 -28
0 -28 0 0 -115z"/>
<path d="M2553 5413 c-9 -3 -13 -34 -13 -109 0 -97 1 -104 20 -104 17 0 20 7
20 40 l0 40 44 0 c44 0 44 0 44 -36 0 -35 17 -58 34 -48 5 3 8 52 7 109 -1 78
-5 105 -15 109 -11 4 -42 -32 -36 -41 1 -2 2 -11 2 -22 0 -15 -8 -19 -40 -19
-37 -1 -40 1 -41 26 -1 37 -12 60 -26 55z"/>
<path d="M2920 5412 c-33 -3 -37 -6 -49 -50 -8 -26 -19 -53 -25 -61 -6 -8 -9
-15 -7 -15 2 -1 -2 -18 -9 -40 -10 -30 -10 -40 0 -46 17 -11 50 0 50 16 0 25
47 28 76 5 39 -30 54 -27 54 12 0 26 -46 182 -53 182 -1 0 -18 -1 -37 -3z m30
-113 c0 -4 -9 -9 -20 -12 -17 -4 -20 0 -20 31 l0 37 20 -25 c11 -14 20 -28 20
-31z"/>
<path d="M3151 5410 c-5 -4 -7 -174 -2 -201 0 -3 13 -5 29 -4 21 1 28 6 30 26
2 20 15 31 54 50 l50 23 -5 44 c-3 24 -9 48 -15 54 -11 11 -128 17 -141 8z
m93 -55 c7 -20 -23 -33 -34 -14 -5 7 -6 17 -4 21 9 13 32 9 38 -7z"/>
<path d="M3444 5405 c-1 -5 -5 -39 -8 -75 -3 -36 -7 -80 -10 -98 -4 -32 -3
-33 27 -30 30 3 32 5 32 43 0 39 1 40 36 40 44 1 69 24 69 62 0 51 -21 68 -85
68 -32 1 -59 -4 -61 -10z m84 -52 c-5 -26 -38 -29 -38 -4 0 15 6 21 21 21 14
0 19 -5 17 -17z"/>
<path d="M4029 5409 c0 -5 -1 -29 -2 -54 0 -25 -4 -45 -9 -45 -4 0 -20 22 -36
50 -21 40 -32 50 -53 50 l-26 0 0 -115 c0 -101 2 -115 16 -113 12 2 17 19 21
68 l5 65 29 -49 c33 -56 60 -86 79 -86 11 0 14 26 14 118 0 108 -1 118 -18
119 -11 1 -19 -2 -20 -8z"/>
<path d="M4234 5412 l-31 -3 2 -107 c2 -59 3 -111 4 -117 1 -6 33 -9 81 -7
l80 4 0 34 c0 19 -3 33 -7 33 -5 -1 -27 -1 -50 0 -61 1 -54 21 7 21 49 0 50 1
50 30 0 27 -3 30 -34 30 -37 0 -66 8 -66 19 0 3 21 6 47 6 43 0 47 2 50 28 2
17 -1 27 -9 28 -68 3 -98 4 -124 1z"/>
<path d="M4535 5410 c3 -5 -8 -16 -24 -25 -42 -21 -44 -29 -21 -67 24 -39 25
-58 6 -58 -27 0 -25 -16 7 -51 37 -40 63 -43 96 -12 14 13 33 25 43 29 23 7
23 23 -2 54 -25 32 -25 44 0 61 20 14 20 15 -10 47 -24 24 -39 32 -66 32 -20
0 -33 -4 -29 -10z m45 -155 c0 -9 -6 -12 -16 -8 -13 5 -13 7 -2 14 17 11 18
11 18 -6z"/>
<path d="M3729 5408 c-1 -4 -1 -189 0 -210 1 -10 7 -18 15 -18 18 0 22 19 21
130 0 82 -2 95 -17 98 -10 2 -18 2 -19 0z"/>
<path d="M4785 5353 c13 -68 14 -105 5 -124 -14 -25 23 -49 77 -49 47 0 53 6
64 63 6 34 4 40 -12 44 -11 3 -19 9 -19 14 0 5 -11 9 -24 9 -13 0 -29 7 -36
15 -10 12 -7 15 15 21 16 4 30 2 34 -4 9 -14 51 -11 51 4 0 27 -37 44 -99 44
l-63 0 7 -37z m78 -100 c-7 -2 -21 -2 -30 0 -10 3 -4 5 12 5 17 0 24 -2 18 -5z"/>
<path d="M1297 4934 c-4 -4 -7 -29 -7 -55 0 -47 1 -48 30 -47 31 1 31 1 28 52
-3 43 -6 51 -23 54 -12 2 -24 0 -28 -4z"/>
<path d="M2791 4926 c-18 -21 -17 -47 3 -88 27 -55 37 -49 57 32 12 52 -30 92
-60 56z"/>
<path d="M4550 4909 c0 -3 9 -14 19 -23 21 -19 35 -15 50 12 8 16 4 18 -30 17
-21 0 -39 -3 -39 -6z"/>
<path d="M1411 3506 c-21 -12 -21 -12 9 -48 29 -35 50 -44 119 -53 36 -5 111
-42 111 -55 0 -6 26 -10 59 -10 32 0 83 -5 112 -10 30 -6 70 -13 89 -16 101
-15 112 -23 325 -232 33 -33 69 -64 80 -70 34 -17 163 -41 198 -35 37 5 157
62 157 74 0 4 14 16 30 26 17 9 30 23 30 30 0 18 -35 16 -110 -7 -112 -34
-187 -26 -302 33 -97 51 -147 88 -236 175 -94 92 -180 128 -339 143 -115 10
-149 20 -157 46 -5 15 -18 18 -80 19 -40 1 -83 -4 -95 -10z"/>
<path d="M3745 2921 c-16 -4 -113 -6 -215 -6 -234 2 -306 -17 -401 -102 -65
-59 -65 -57 -15 -211 48 -150 73 -234 81 -272 20 -92 27 -128 31 -150 2 -14 7
-36 10 -50 3 -14 8 -38 11 -55 2 -16 8 -46 13 -65 5 -19 12 -51 15 -70 4 -19
8 -42 10 -50 2 -8 4 -23 4 -32 1 -26 16 -23 148 28 246 95 413 146 518 159 99
12 97 10 91 63 -10 75 -16 111 -41 217 -22 94 -123 426 -160 525 -9 25 -19 53
-22 63 -6 18 -26 20 -78 8z"/>
<path d="M2768 2764 c-2 -1 -23 -5 -48 -9 -25 -3 -63 -11 -85 -17 -22 -6 -44
-11 -50 -12 -68 -13 -203 -74 -283 -128 -60 -41 -130 -117 -126 -137 2 -9 11
-45 20 -81 9 -36 17 -72 19 -80 2 -8 17 -73 35 -145 17 -71 33 -137 35 -145 9
-39 67 -279 75 -310 5 -19 12 -48 15 -65 3 -16 11 -47 16 -68 l10 -37 77 41
c42 23 84 47 92 54 63 50 257 110 454 141 21 3 48 8 60 10 11 2 35 7 51 9 61
11 65 14 60 48 -2 18 -11 60 -19 94 -9 35 -18 87 -20 118 -3 30 -11 65 -17 77
-7 13 -14 40 -15 62 -2 22 -8 51 -13 65 -6 15 -28 96 -50 181 -49 192 -66 242
-99 295 l-27 41 -82 1 c-46 0 -84 -1 -85 -3z"/>
<path d="M660 1009 c0 -16 5 -20 27 -17 17 2 29 10 31 21 3 13 -3 17 -27 17
-25 0 -31 -4 -31 -21z"/>
<path d="M667 959 c7 -7 15 -10 18 -7 3 3 -2 9 -12 12 -14 6 -15 5 -6 -5z"/>
<path d="M695 940 c-3 -5 1 -10 10 -10 9 0 13 5 10 10 -3 6 -8 10 -10 10 -2 0
-7 -4 -10 -10z"/>
<path d="M833 908 c1 -10 4 -18 7 -19 39 -6 49 -4 53 13 3 10 0 18 -6 19 -7 0
-22 2 -34 3 -15 2 -21 -3 -20 -16z"/>
<path d="M1028 885 c-3 -11 -3 -26 0 -33 6 -18 32 -14 33 6 0 9 2 25 4 34 2
11 -3 16 -15 15 -10 -1 -20 -11 -22 -22z"/>
<path d="M2225 404 c-14 -22 -15 -28 -3 -40 10 -10 20 -10 51 -1 20 7 37 15
37 19 0 8 -50 48 -60 48 -4 0 -15 -12 -25 -26z"/>
<path d="M2197 314 c-20 -21 7 -74 38 -74 22 0 45 29 41 53 -2 17 -11 23 -37
25 -19 2 -38 0 -42 -4z"/>
<path d="M3266 338 c-9 -21 -16 -41 -16 -45 0 -9 59 -13 64 -4 3 4 -4 24 -14
46 l-19 40 -15 -37z"/>
</g>
</svg>
