<svg version="1.1" xmlns="http://www.w3.org/2000/svg" xmlns:xlink="http://www.w3.org/1999/xlink" viewBox="170.342 0 129.555 144.15" enable-background="new 170.342 0 129.555 144.15" xml:space="preserve">
<g>
	<path fill="#343440" d="M180.639,0c8.497,0,16.894,0,25.391,0c0.5,1.2,1.6,0.5,2.299,0.5c27.391,0,54.881,0,82.271,0
		c0.6,0,1.299,0,1.899,0c0.2,0,0.3-0.3,0.399-0.5c0.4,0,0.7,0,1.1,0c0,5.099,0.1,10.297,0,15.395
		c-0.1,5.099,0.301,10.097-0.399,15.195c-0.5,3.299-0.101,6.598-0.101,9.996c0,0.5,0.2,1.2,0,1.6
		c-0.799,1.199-0.6,2.599-0.399,3.799c0.2,1.499-0.6,2.699-0.6,4.099c-0.101,1.999,0,4.099-0.601,5.998
		c-0.699,2.299-0.799,4.698-1.499,6.897c-0.8,2.399-1.3,4.898-1.999,7.297c-0.9,3.299-2.399,6.398-3.699,9.497
		c-1.6,3.898-3.598,7.697-5.897,11.296c-3.299,5.198-6.897,10.097-11.196,14.595c-0.3,0.301-0.4,0.7-0.699,1.3
		c0.999,0,1.799,0.2,2.398-0.1c0.8-0.5,1.699-0.4,2.5-0.5c0.898-0.1,1.799-0.5,2.698-0.5c2.8,0,5.499-0.699,8.197-1.199
		c1.999-0.3,4.099-1.1,5.398-2.899c-1.399-1.699-3.698-2.099-5.298-3.299c0-0.399,0-0.699,0-1.1
		c3.598-0.899,5.298-1.899,7.497-4.198c0.7-0.8,0.6-1.699,0.999-2.6c0.301-0.6-0.1-1.599-0.399-2.499
		c-0.8-2.199-2.999-3.299-3.799-5.598c3.799,0.3,7.497,1.199,10.597,3.599c0.5,1.3,1.1,2.699,1.499,3.799
		c-0.2,1.199-0.3,2.199-0.499,3.299c-0.601,0.899-1.301,1.999-2,3.099c-0.199,1.3,0.2,2.699-0.5,4.099c-0.3,0.5,0,1.5,0.2,2.3
		c0.899,3.398,1.399,6.797,1.899,10.296c0.199,1.3-0.4,2.399-0.5,3.599c-0.199,2.699-1.6,4.599-3.699,5.898
		c-2.199,1.399-4.598,2.398-7.197,2.799c-0.699,0.1-1.299,0.399-1.898,0.5c-0.7,0.1-1.4,0-2.1,0.1c-1.6,0.5-3.299,0.899-4.998,1
		c-0.5,0-1.1,0-1.5,0.199c-1.199,0.7-2.6,0.601-3.599,0.2c-0.999-0.399-1.899-0.2-2.799-0.5c-1.1-1.399-0.7-3.198-0.7-4.798
		c0-0.899,0-1.8,0-2.699c2.1-0.8,2.899-2.1,2.6-4.299c-0.7-0.399-1.5-0.8-1.8-1.1c-0.899,0.2-1.499,0.4-1.999,0.4
		c-0.699,0.1-1.6-0.3-2.1,0.1c-2.398,1.399-4.098-0.399-5.898-0.8c-2.099,0.3-3.598,1.5-4.897,2.799c-0.101,0.101-0.3,0.101-0.5,0.2
		c-2.099,1.399-4.198,2.799-6.397,4.099c-4.099,2.499-8.397,4.398-12.996,5.599c-0.699,0.199-1.399,0.499-2.099,0.699
		c0,0.1,0.1,0.2,0.1,0.4c0.7,0,1.399,0,2.099,0c1.2,0,2.3,0.1,3.5,0c1.199-0.101,2.398-0.4,3.498-0.5
		c2.199-0.2,4.398-0.101,6.498-0.7c1.1-0.3,2.199-0.2,3.199-0.6c3.299-1.3,6.697-2.299,10.096-3.499
		c2.199-0.8,4.199-1.799,6.698-2.199c0,0.7,0,1.399,0,2.1c0,4.498,0,8.896,0,13.295c-0.7,0.3-1.1,0.7-1.499,0.8
		c-2.699,0.8-5.299,2-8.098,2.6c-2.899,0.6-5.498,2.299-8.497,2.299c-3.499,1.6-7.298,1.6-10.997,2.1
		c-2.898,0.399-5.897,0.1-8.896,0.1c-2.999-0.1-5.998,0.3-8.997-0.5c-1.6-0.399-3.499,0.101-5.198-0.6c-1-0.399-2.099,0.2-3.299-0.5
		c-0.9-0.5-2.299-0.3-3.499-0.6c-4.999-0.899-7.198-1.6-11.896-3.599c0.899-1.899,0.6-3.898,0.6-5.898c0-0.799,0-1.599,0-2.398
		c0-2.3,0-4.599,0-7.098c0.8,0.3,1.3,0.5,1.799,0.6c3.499,1.1,6.998,2.499,10.796,2.699c1,1.1,2.399,0.3,3.599,1
		c1.1,0.6,2.699-0.101,4.099,0.499c1.1,0.5,2.699,0.101,3.999,0.101c1,0,2.1-0.3,2.899,0.1c2.1,1,4.099,0.2,6.298,0.2
		c-7.997-3.199-15.395-7.197-22.092-12.695c-0.4,0-1,0-1.599,0c-0.1,0.3-0.1,0.499-0.2,0.799c-1.1,1-2.699,1.2-3.799,0.7
		c-1.399-0.6-2.799-0.399-4.098-0.399c-1.1,0-2.199,0.6-3.199,0.899c-0.3,1.6,0,2.699,1,3.599c0,2.999,0,5.897,0,8.896
		c-2.1-0.1-4.099,0.101-6.298-0.499c-1.899-0.5-3.899-0.101-5.998-0.5c-1.799-0.4-3.699-0.7-5.498-1.2
		c-4.099-1.1-7.098-3.498-8.997-7.397c-0.3-0.6-0.3-1.199-0.3-1.799c0-1.3,0-2.499,0-3.799c-0.4-2.299,0.3-4.599,0.7-6.798
		c0.4-2.099,0.8-4.298,1.399-6.397c0.3-1.2,0.2-2.699-0.4-4.099c-1-2.299-1.399-4.799-1.1-7.397c0-0.4,0-0.7,0-0.5
		c1.1-2.599,2.799-3.898,5.099-4.599c2.199-0.6,4.398-1.499,7.097-0.899c-1,0.8-1.899,1.3-2.599,1.999c-0.6,0.5-0.899,1.2-1.399,1.8
		c-1.2,1.399-1,3.199-1.699,4.599c1.699,4.099,4.998,5.897,8.597,7.297c0,0.6,0,1,0,1.399c-2.499,0.101-4.298,1.3-5.798,2.999
		c1.3,0.601,2.699,1.399,4.099,1.899c1.3,0.5,2.699,0.8,4.099,1.1c1.5,0.4,2.899,0.8,4.398,1.1c1.399,0.3,2.999,0.2,4.298,0.6
		c1.6,0.5,2.999,0.4,5.099,0.5c-2.199-1.6-3.799-3.099-5.198-4.898c-2.699-3.698-5.099-7.597-7.198-11.596
		c-1.1-2.1-2.099-4.099-2.999-6.298c-1.899-4.498-3.798-8.997-5.198-13.795c-1.1-3.599-1.999-7.197-2.299-10.896
		c-0.4-3.799-0.5-7.797-0.6-11.596c-0.2-3.299,0.1-6.698-0.1-9.997c-0.2-3.398,0.7-6.697,0.6-9.996c-0.1-2.699-0.1-5.398,0-8.098
		c0.1-2.599-0.1-5.197,0.4-7.896c0.5-2.899-0.1-5.998,0.6-8.897C180.839,3.099,180.639,1.5,180.639,0z M280.005,120.358
		c-0.301,0-0.701,0-1.1,0c0.1,0.7,0.1,1.199,0.1,1.6c0.6,0,1.1,0,1.499,0c0.7,0,1.399,0,2.099,0c0-1.2,0-2.1,0-2.999
		c-1.1-0.8-1.1-0.8-3.299-0.7c-0.1,0-0.299,0.2-0.499,0.3c0,0.2,0.101,0.5,0.101,0.7c0.699,0.5,1.699-0.399,2.099,0.7
		C280.604,119.959,280.005,119.558,280.005,120.358z M233.021,45.885c0.7-0.5,1.399-0.9,2.199-1.4c0-0.199,0-0.499,0-1.199
		c0,0.2,0,0.3,0,0.5c0.4-0.101,0.699-0.101,1.1-0.2c0-0.1,0-0.2,0-0.3c-0.3,0-0.699,0.1-1,0.5c-1.099,0.2-2.199,0.399-2.699,1.6
		c0,0.199,0,0.399,0.3,0.5c-0.7,0-1.199,0-1.599,0c-0.9,0.899-1.7,1.799-2.599,2.599c-0.9,0.899-1.7,1.999-2.999,2.499
		c0,1.8,0,1.8,1.299,3.599c0.6,0,1.3-0.1,2-0.1c-0.5-3.699,1.399-6.098,3.699-8.497C232.621,45.885,232.821,45.885,233.021,45.885z
		 M289.101,115.56c-0.999,0.199-0.399,0.899-0.5,1.499c0.5,0.3,1.1,0.6,1.6,1c0,0.3,0,0.499,0,0.8c-0.399,0.1-0.699,0.1-1.1,0.199
		c0.6,0.3,1.3,0.8,1.6-0.199c0.301,0,0.6,0,1,0c0-1.8,0-1.8-2.1-2.5c0-0.3,0-0.499,0-0.799c0.301-0.101,0.7-0.101,1.1-0.2
		C290.101,115.06,289.501,114.56,289.101,115.56z M191.935,40.486c1.3,0,2.5,0,3.799,0c0.5,0,1.1,0,1.6,0c0,0.5,0,1.1,0,1.6
		c-1.5,0-3.099,0-4.599,0c-1.1,0-2.099,0.1-2.999,0.999c4.299,0,8.497,0,12.696,0c-0.1,0.2-0.2,0.3-0.4,0.5c0.4,0.1,0.8,0.2,1.6,0.5
		c-1.2,0.2-1.6,0.3-2.199,0.399c0.1,0.4,0.2,0.601,0.2,0.9c1.399,0,2.699,0,3.699,0c0.8,0.899,1.399,1.6,1.899,2.099
		c0.899-0.3,1.5-0.499,2.199-0.699c0.4,0.699,0.6,1.199,0.9,1.699c0.399,0.399,0.899,0.7,1.399,1c0,0.399,0.1,0.899,0.1,1.399
		c1.5,0,2.799,0,4.199,0c0,0.5,0,0.899,0,1.6c-0.7,0-1.399,0-2.099,0c4.298,1.199,7.197,4.198,10.196,7.197
		c1-0.7,1.899-1.399,2.699-1.899c-1.5-1.699-2.799-3.399-4.199-4.898c-1.699-1.8-2.899-3.999-3.699-6.298
		c-0.5-1.3-1.1-2.299-1.899-3.199c-1.799-1.999-4.198-2.799-6.498-3.798c-1.1-0.5-2.199-0.5-3.299-0.5c-1.799,0-3.599,0-5.198,0
		c-0.6,0.399-1.1,0.8-1.699,0.899c-0.8,0.2-1.799,0.6-2.5-0.399c-0.2-0.2-0.4-0.4-0.5-0.5c0-0.2,0-0.4,0-0.5
		c2.499-0.6,4.998-1.3,7.697-1.1c0.6,0,1.1,0,1.699-0.4c0.6-0.3,1.5-0.1,2.299-0.1c0.5,0,1,0.4,1.399,0.4
		c1.1-0.101,1.799,0.499,2.599,0.899c1.5,0.899,2.999,1.899,4.499,2.898c0.6,0.4,1.1,1,1.5,1.8c0.899,2.199,2.199,4.299,3.099,6.498
		c0.399,0.999,1.1,1.499,1.899,2.099c0.4-0.399,0.7-0.699,0.9-1.1c2-4.198,5.698-6.497,9.796-8.197c1.3-0.6,2.699-0.8,4.099-1.199
		c1.3-0.399,2.499-0.899,3.899-1c1.398-0.1,2.898-0.399,4.298-0.699c0-3.898,0-7.697,0-11.696c-1.6,0-3.099-0.1-4.599,0
		c-1.6,0.2-3.099-0.6-4.598-0.6c-15.595,0-31.09,0-46.684,0c-0.5,0-1.2-0.1-1.6,0.1c-1.1,0.601-2.099,0.7-3.199,0
		c-0.4-0.3-1.2,0-1.7,0c-0.3,0.3-0.6,0.5-0.7,0.7c-0.1,1.6-0.8,3.199-0.7,4.898c0.1,3.998,0,7.897,0.1,11.896
		c0.1,3.999-0.5,7.997,0.5,11.896c-0.4,1.799,0.2,3.498,0.6,5.197c0.7,2.899,1.299,5.898,1.999,8.897
		c0.9,3.898,2.1,7.598,3.699,11.196c2.399,5.298,4.898,10.696,8.597,15.395c2,2.599,3.999,5.198,6.198,7.697
		c2.299,2.599,5.198,4.698,7.997,6.798c1.2,0.899,2.2,2.099,3.699,2.599c4.599,2.699,8.897,5.898,14.195,7.997
		c0.6-0.1,1.6,0.2,2.599-0.199c3.499-1.5,7.098-2.8,10.696-4.099c0-2.3-0.399-4.599,0.101-6.798c0.399-1.8,0.3-3.599,0.399-4.898
		c-0.6-1.6-1.699-1.499-2.199-1.1c-0.799,0.399-1.499,0.399-2.199,0.5c-0.799,0.1-1.6,0.399-2.499,0.5
		c-2.599,0.399-4.998,1.299-7.497,2.099c-3.599,1.3-6.998,3.1-10.296,4.998c-1.1,0.601-2.1,1.2-3.399,0.9
		c-0.2-1.5-0.2-3.199-0.6-4.599c-0.7-2.299-1.199-4.599-1.5-6.897c-0.2-1.2-0.3-2.399-0.7-3.499c-0.8-1.899-0.8-3.998-1.399-5.897
		c-0.4-1.1,0-2.6-0.7-3.499c-0.8-1.1,0.2-2.499-0.9-3.399c-0.2-1.898-0.5-3.698-0.7-5.397c1-1,1.7-1.8,2.5-2.499
		c1.399-1.3,2.799-2.8,4.398-3.699c3.499-1.899,7.197-3.398,11.296-3.299c3.099,0.101,6.198-0.399,8.998,0.6
		c1.898-3.398,5.197-3.998,8.496-5.098c0-0.4,0-1,0-1.5c0-4.498,0-8.997,0-13.495c0-1-0.1-1.999,0.4-3.099
		c0.399-0.7,0.1-1.899,0.1-3.099c-1.5,0.999-2.799,1.699-3.898,2.499c-0.3,0.199-0.3,0.8-0.6,0.999c-0.7,0.6-1.5,1.2-2.5,1.2
		c-0.999,0-1.998,0-2.998,0c-2,0-3.699,0.699-4.999,2.299c-0.2,0.2-0.1,0.6-0.1,1.3c2.799-2.199,5.498-2.6,8.697-1.1
		c0.2,0.899,0.399,2.099,0.8,3.799c-0.1,1.1,1.699,1.399,2.699,2.698c-0.6,0.101-0.9,0.2-1.3,0.2c-2.3-0.2-4.099,0.899-5.798,2.199
		c-1.199,0.899-2.299,1.8-3.499,2.699c-0.4-1.199,0.7-1.899,1.299-2.799c-1.399-1.1-2.599-2.1-3.898-3.099
		c-1.799,0.399-1.899,0.499-3.499,1.999c-1,0.3-1.699,0.5-2.599,0.8c-1.299-0.9-2.799-1.699-3.898-2.899
		c-1.1-1.199-2.299-2.299-3.999-3.199c-0.8,0-1.799,0.101-2.699,0c-1-0.1-2.099-0.199-2.999-0.6c-1.599-0.699-3.299-0.5-4.898-0.5
		c-1.3,0-2.699,0-3.999,0c0-0.1,0-0.3,0-0.3c-1.699-0.3-3.398-0.699-5.098-0.999c-0.4,0.6-0.7,0.999-1.1,1.6
		c1.1,0.3,2,0.6,1.899,1.799c-1.299-0.399-2.499-0.8-4.499-1.399c2-0.7,0.4-2.899,2.299-3.499c1.699,1.3,3.898,0,5.798,0.8
		c2,0.7,3.999,0.2,5.998,0.4c0.5,0,1,0,1.6,0c-0.4-0.9-0.9-1.2-1.6-1.1c-0.4,0-0.8,0.1-1.1,0c-3.399-1.3-6.798-2.6-10.196-3.999
		c-1.799-0.8-3.499-1.999-5.398-2.399c-1.999-0.399-3.099-1.899-4.398-2.999c0-1.1-1-1.299-1.5-1.599c-0.5-1,0-1.6,0.6-1.899
		c0.7-0.4,1.599-0.4,2.399-0.601c-0.2,0.8-0.4,1.7-0.6,2.699C188.836,40.486,190.435,40.486,191.935,40.486z M194.734,122.057
		c0.2,0,0.6,0,0.899-0.1c-0.6-1.399-1.699-0.899-2.799-1c0.2,1.2,0.4,2.1,0.6,3.099c-0.4,0.2-0.7,0.301-1.399,0.601
		c1.399,0,2.199,0,3.199,0C195.134,123.657,194.934,122.857,194.734,122.057z M181.139,118.259c-0.5-0.699-1.2-1.1-2.199-1.1
		c-0.1-1.1,1.1-1.999,0.2-3.299c-0.7,0.4-1.399,0.9-1.999,1.3c-0.4-0.399-0.6-0.6-0.8-0.8c0.4-0.699,0.7-1.499,1.199-2.399
		c-0.7,0-1.199-0.1-1.599-0.1c-0.8,1-1.6,1.8-2.199,2.799c-0.4,0.8-1.399,1.6-0.3,2.799c0.899-0.499,1.399-1.898,2.699-1.1
		c0,0.4,0,0.8,0,1.7c-0.2,0.1-0.6,0.3-1,0.6c0.3,0.3,0.5,0.5,0.8,0.8c0.8-0.5,1.599-1.1,2.499-1.6c-0.2,0.8-0.3,1.6-0.5,2.499
		c0.6,0.6,1.2,1.199,1.799,1.8c0.7,0,1.3,0,2.1,0c-0.8-1.4,0.899-2.399,0.2-3.699C181.638,118.259,181.438,118.259,181.139,118.259z
		 M184.937,119.358c0,0.2,0,0.4,0,0.5c-0.7,0-1.399,0-2.099,0c0,0.899,0,1.699,0,2.399c0.3,0.3,0.5,0.6,0.7,0.699c1.1,0,2,0,2.899,0
		c0.4-0.499-0.3-1.399,0.7-1.499c0.2,0.899,0.5,1.8,0.7,2.699c0.399,0,0.7-0.101,1,0c0.4,0.1,0.7,0.399,1,0.6
		c0.3-0.3,0.5-0.5,0.7-0.6c0.3-0.101,0.6-0.2,0.9-0.3c0-1-0.3-2.1,0.1-2.799c0.6-1,0.2-1.899,0.5-2.8
		c-0.8-0.3-1.399-0.499-2.099-0.8c-0.1,1.1-0.1,1.899-0.2,2.8c-1,0-1.799,0-2.599,0c-0.6-0.7-1.199-1.5-1.699-2.1c-0.6,0-1,0-1.6,0
		c0.1,0.399,0.1,0.7,0.2,1C184.438,119.358,184.637,119.358,184.937,119.358z M247.016,133.954c-0.6-0.2-1.2-0.5-1.8-0.7
		c-1.499,1.399-2.998,2.6-2.498,4.698c0.299,0.3,0.499,0.6,0.898,1c1.301-0.5,2.6-0.899,3.899-1.399c0-1.1,0-2.1,0-3.1
		c0.3,0,0.499,0,0.8,0c0.6,2,1.1,2.899,1.699,3.199c0.899,0.1,1.6-0.1,1.799-1.3c-0.5-0.3-0.999-0.699-1.699-1.299
		c-0.199-1.2,0.4-2.899-1.199-4.099c-0.4,0.499-0.699,0.899-1,1.299c-0.3,0.4-0.699,0.7-1.1,1.1
		C246.915,133.454,247.016,133.754,247.016,133.954z M231.821,49.682c1.7-0.499,3.299-0.899,4.899-1.399
		c1.799-3.198,5.397-3.599,8.097-5.498c0-0.399,0-0.699,0-1.199c-0.7-0.2-1.499-0.7-2.099-0.6c-1.2,0.3-2.4,0.8-3.399,1.499
		c-1.399,0.899-2.399,2.399-3.799,3.099c-1.699,0.9-2.699,2.3-3.499,3.999C231.921,49.682,231.921,49.682,231.821,49.682
		s-0.3,0.2-0.4,0.3c0.1,0.101,0.1,0.101,0.2,0.2C231.721,49.982,231.821,49.883,231.821,49.682z M270.907,94.067
		c0.6-0.6,1.1-0.999,1.5-1.499c2.799-3.699,5.098-7.697,6.896-11.996c0.801-1.899,1.6-3.799,2.199-5.798
		c0.701-1.999,1.4-3.898,2.1-5.898c0.4-1.299,1-2.499,1.2-3.799c0.399-2.898,1.8-5.498,1.699-8.497
		c1.2-2.599,0.899-5.498,1.499-8.196c0.5-2,0.4-4.199,0.5-6.198c0.301-4.599,0.1-9.297,0.1-14.095c-3.198,0-6.197,0-9.297,0
		c-0.799,0-1.499,0.1-2.299-0.3c-0.899-0.4-2.299-0.5-3.099-0.101c-1.2,0.6-2.399,0.4-3.599,0.4c-3.599,0.1-7.197,0-10.797,0
		c-0.399,3.099,0,6.197-0.5,9.297c-0.6,3.798,0.101,7.697-0.6,11.596c-0.399,2.399-0.1,4.798-0.1,7.297c0,0.5,0.2,1.2,0,1.6
		c-0.799,1.1-0.5,2.399-0.5,3.599c0,1.3-0.1,2.6,0.1,3.999c2.199,0,4.299,0,6.299,0C266.108,75.074,268.108,84.47,270.907,94.067z
		 M184.438,16.694c2.599,0,4.898,0,7.297,0c2.299,0,4.698,0,6.998,0c2.199,0,4.499,0,6.698,0c2.299,0,4.698,0.1,6.998,0
		c2.299-0.2,4.499,0.6,6.797,0.6c22.493,0,44.985,0,67.377,0c0.799,0,1.599,0,2.398,0c0-4.099,0-7.997,0-11.896
		c-28.89,0-57.68,0-86.37,0c-3.699,0-7.397,0.399-11.096-0.4c-2-0.499-4.299-0.1-6.498-0.1c0,1.899-0.1,3.699-0.5,5.498
		C184.138,12.395,184.438,14.495,184.438,16.694z M245.316,69.176c-2.699,1.7-5.298,3.299-7.798,4.898
		c-1.299-0.6-5.698-0.999-8.497-0.5c-2.699,0.5-5.298,1.5-7.697,2.8c-2.399,1.399-4.599,2.999-6.098,5.897c0.1,0.3,0.3,1,0.4,1.6
		c0.6,2.199,1.2,4.398,1.799,6.598c0.3,0.899,0.7,1.699,0.6,2.799c-0.1,0.8,0.4,1.699,0.6,2.399c0.3,0.899,0.2,1.899,0.5,2.799
		c0.5,1.6,0.7,3.299,1,4.998c0.3,1.7,0.7,3.499,1.1,5.198c0.1,0.4,0.5,0.8,0.9,1.3c3.499-2.1,6.697-4.398,10.496-5.598
		c3.898-1.3,7.898-2.3,11.896-2.1c3.199-1.699,6.197-3.299,9.297-4.798c2.199-1.1,4.598-1.899,7.098-1.7
		c1.999,0.101,3.799-0.6,5.697-1.299c-0.299-1.2,0.4-2.399-0.6-3.399c0.1-1.799-0.799-3.499-1.1-5.198
		c-0.3-1.899-0.799-3.799-1.199-5.697c-0.6-2.699-1.5-5.398-1.899-8.098c-0.3-1.6-0.8-2.999-1.499-4.698
		c-1.2,0.699-2.199,1.3-3.299,1.999c-2.6-0.3-5.299,0.5-7.998-0.6c-0.199-0.1-0.6-0.1-0.799,0
		C247.216,69.376,246.017,68.976,245.316,69.176z M256.812,99.365c0,3.499,0,6.798,0,10.396c4-4.198,8.197-7.697,11.396-12.295
		c-1.799-0.9-3.199,0.1-4.698,0.3c-1.599,0.1-3.299,0.399-4.798,0.6C258.012,98.666,257.513,99.065,256.812,99.365z
		 M238.818,132.854c0.3,1.199,0.5,2.099,0.7,3.099c-1.3-1.3-2.1-2.999-4.1-3.099c-0.899,2.299,0.601,4.298,0.301,6.397
		c0.6,0.3,1,0.5,1.699,0.8c0-1.2,0-1.999,0-3.199c0.699,0.5,1.199,0.7,1.5,1c0.399,0.399,0.6,0.999,0.899,1.699
		c0.7-0.3,1.399-0.6,1.999-0.899c-0.3-2-0.5-3.899-0.8-5.798C240.317,132.854,239.718,132.854,238.818,132.854z M218.226,130.955
		c-1.799,2.099-1.2,4.798-2.499,6.697c0.5,0.7,1,1.199,1.299,1.6c1.1,0,2,0,2.999,0c0.5-0.8,1.1-1.5,1.7-2.399
		c0-0.5-0.1-1.199,0-1.799c0.1-0.601,0.4-1.3,0.6-1.7C221.424,131.654,219.825,131.654,218.226,130.955z M263.909,22.492
		c0.9,1.2,0.7,3.299,3,2.799c0-1.699,0-3.398,0-5.298c-0.4-0.2-0.9-0.399-1.5-0.699c-0.1,1.1-0.1,1.999-0.199,2.999
		c-0.7-1.101-1.301-2-1.9-2.899c-0.399,0-0.799,0-1.199,0.1c0,2,0,3.899,0,6.099c0.6-0.4,1-0.601,1.399-0.8
		C263.71,23.992,263.81,23.292,263.909,22.492z M255.712,19.493c0,1.899,0,3.599,0,5.198c0.301,0.3,0.5,0.5,0.601,0.6
		c1.2,0,2.3,0,3.599,0c0-0.6-0.1-1.1-0.1-1.499c-1-0.1-1.8-0.1-2.6-0.2c0-0.1,0-0.3,0-0.399c0.8,0,1.699,0,2.6,0c0-0.6,0-1,0-1.5
		c-0.9-0.1-1.699-0.199-2.6-0.3c0-0.2,0-0.3,0.1-0.5c0.801,0,1.699,0,2.5,0c0-0.6,0-0.999,0-1.499
		C258.512,19.493,257.212,19.493,255.712,19.493z M193.734,18.893c0,1.699,0,3.499,0,5.298c1.399,1.3,2.799,0.5,4.298-0.199
		c0.2-1.1,0.4-2.199,0.6-2.999c-0.6-0.9-1-1.5-1.399-2.1C196.033,18.893,194.934,18.893,193.734,18.893z M200.632,18.993
		c0,1.5,0,2.999,0,4.599c0.4,0.4,0.8,0.8,1.2,1.2c0.799,0,1.599,0,2.399,0c0.4-0.7,0.8-1.3,1.1-1.899c0-1.2,0-2.199,0-3.299
		c-0.3-0.3-0.6-0.5-0.899-0.7c-0.1-0.1-0.3,0-0.7,0.1c0,1.4,0,2.699,0,4.199c-0.6,0-1,0-1.599,0c0-1.399,0-2.799,0-4.199
		C201.631,18.993,201.231,18.993,200.632,18.993z M191.335,18.993c-1.2,0-2.399,0-3.699,0c0,1.8,0,3.499,0,5.099
		c1.2,0.7,2.399,1.1,3.599,0.5c0-0.5,0-0.899,0-1.399c-0.899-0.101-1.799-0.101-2.599-0.101c0-0.1,0-0.199,0-0.399
		c0.9-0.1,1.799-0.1,2.599-0.2c0-0.6,0-0.999,0-1.399c-0.899-0.1-1.699-0.1-2.599-0.2c0-0.1,0-0.3,0-0.399c0.8,0,1.7,0,2.599,0
		C191.335,19.893,191.335,19.493,191.335,18.993z M279.005,25.291c0.6,0,1,0,1.499,0c-0.399-0.699-0.7-1.399-0.899-1.799
		c0.199-1.1,0.3-1.999,0.5-2.799c-0.801-0.5-1.4-0.8-2-1.2c-0.699,0-1.499,0-2.299,0c0,2,0,3.899,0,5.798c0.3,0,0.6,0,0.8,0
		c0.1-0.699,0.2-1.499,0.399-2.199c0.4,0.101,0.6,0.101,0.7,0.2C278.104,23.992,278.505,24.592,279.005,25.291z M234.92,24.792
		c1.499-2.3,2.099-2.499,0-5.299c-1,0-2,0-2.899,0c-1.799,2.699-1.7,2.699,0,5.299C233.021,24.792,234.02,24.792,234.92,24.792z
		 M231.421,56.48c1.3,1,2.5,1.999,3.699,2.999c0.399-0.2,0.799-0.399,1.199-0.6s0.699-0.5,0.9-0.7c-0.701-0.6-1.5-1.199-2-1.599
		c-0.5-2.1,1.6-1.8,2.1-2.899c-2.399-0.899-3.799,1.699-5.898,1.499C231.421,55.68,231.421,56.081,231.421,56.48z M214.227,25.191
		c0.9-0.699,1.5-1.1,2.199-1.6c0.8,0.5,1.5,0.9,2.699,1.699c-0.5-2.599-1.2-4.498-2-6.397c-0.5,0-0.899,0-1.299,0.1
		C215.427,20.993,214.027,22.692,214.227,25.191z M241.618,21.992c-0.101,0.101-0.301,0.101-0.4,0.2c-0.5-0.899-1-1.899-1.5-2.799
		c-0.5,0-0.799,0-1.199,0.1c0,1.8,0,3.499,0,5.299c0.3,0,0.6,0,1,0c0-0.9,0-1.7,0-2.6c0.1,0,0.199-0.1,0.399-0.1
		c0.5,0.899,1,1.799,1.499,2.599c0.4,0,0.9,0,1.4,0c0-1.699,0-3.299,0-4.898c0-0.1-0.2-0.3-0.301-0.399
		c-0.199,0.1-0.499,0.1-0.799,0.2C241.618,20.393,241.618,21.192,241.618,21.992z M207.429,23.592c1,0.5,1.8,0.9,2.599,1.3
		c0.7-0.3,1.3-0.6,1.799-0.899c0.1-0.8,0-1.5-0.899-1.8c-0.6,0.3-0.8,1.3-1.7,0.899c0-0.899,0-1.699,0-2.898
		c0.8,0.6,1.3,0.899,1.5,1.1c0.4-0.2,0.9-0.4,1.1-0.5c-0.7-0.7-1.199-1.3-1.899-1.999c-0.5,0.199-1.2,0.399-2.1,0.8
		C207.829,20.892,207.629,22.192,207.429,23.592z M226.823,139.851c0.5-1.499,1.1-3.099,0.6-4.798c-0.5,0-1,0-1.2,0
		c-0.3,0.999-0.5,1.799-0.799,2.499c-0.1,0.3-0.5,0.399-1.1,0.899c0-1-0.1-1.699,0-2.199c0.1-0.6,0.3-1.199,0.5-1.8
		c-0.7,0-1.1,0-1.699,0c0.7,1.7-0.9,3.1-0.4,4.599C224.224,139.351,225.523,139.651,226.823,139.851z M253.813,23.692
		c-0.7-0.5-1.1-0.8-1.6-1.1c-0.3,0.499-0.5,0.899-0.8,1.399c-1.1-1.1-1.1-1.1-0.999-2.699c0.999-0.8,1.998,1.3,3.198-0.101
		c-0.5-0.6-0.999-1.199-1.399-1.699c-0.6,0-1.199,0-1.699,0c-0.5,0.5-0.9,0.9-1.3,1.2c0,1.299,0,2.398,0,3.398
		c0.3,0.3,0.5,0.5,0.6,0.7c1,0,1.899,0,2.899,0C253.113,24.492,253.313,24.191,253.813,23.692z M282.703,25.291
		c1.399,0,2.499,0,3.698,0c0-0.3,0-0.6,0-0.999c-0.898,0-1.799,0-2.698,0c0-0.4,0.1-0.7,0.1-1c0.899,0,1.8-0.1,2.699-0.1
		c-0.101-0.4-0.101-0.7-0.2-0.899c-0.899-0.101-1.799-0.101-2.699-0.2c0.101-0.4,0.2-0.7,0.2-0.9c0.899-0.1,1.8-0.1,2.699-0.199
		c-0.101-0.4-0.2-0.7-0.3-0.9c-1.199,0-2.399,0-3.6,0C282.703,21.793,282.703,23.492,282.703,25.291z M229.322,133.954
		c-0.1,1.199-1.399,2.199-0.2,3.498c0.2,0.2,0,0.8-0.1,1.2c-0.1,0.5-0.3,1.1-0.5,1.799c1.1-0.1,2-0.1,3.199-0.1
		c-0.6-0.8-1-1.3-1.299-1.699c0-0.7,0-1.3,0-1.899c0.4-0.101,0.6-0.101,0.9-0.2c0-0.3,0.1-0.6,0.1-0.8c-0.2-0.6-0.5-1.199-0.7-1.799
		C230.222,133.954,229.822,133.954,229.322,133.954z M276.705,122.557c0-0.399,0.101-0.899,0-1.3c-0.1-0.5-0.3-0.899-0.499-1.399
		c0.299-0.5,0.499-0.999,0.799-1.699c0.4,0,0.801,0,1.3,0c0-0.3,0-0.6,0-0.899c-1.6,0-3.198,0-4.798,0c0,0.399,0,0.6,0.1,0.899
		c0.5,0.1,1,0.2,1.6,0.3c0,1.399,0,2.699,0,4.099C275.706,122.557,276.105,122.557,276.705,122.557z M271.207,25.891
		c0.101-1.899,0.101-3.399,0.2-4.898c0.6,0,1,0,1.5,0c0-0.5,0-0.9,0-1.399c-1.4,0-2.8,0-4.299,0c0,0.6,0.1,1.1,0.1,1.599
		c0.6,0,1,0,1.5,0c0,0.8-0.101,1.5,0,2.2C270.407,23.992,269.808,24.891,271.207,25.891z M224.823,19.493c-1.399,0-2.799,0-4.298,0
		c0.1,0.4,0.1,0.7,0.2,1.1c0.5,0,1,0,1.5,0c0,1.5,0,2.899,0,4.299c0.4-0.1,0.7-0.1,1.1-0.2c0-1.399,0-2.799,0-4.298c0.6,0,1,0,1.5,0
		C224.823,20.093,224.823,19.893,224.823,19.493z M227.123,19.493c0,1.8,0,3.499,0,5.299c0.5,0,0.9,0,1.399,0c0-1.8,0-3.499,0-5.299
		C228.022,19.493,227.623,19.493,227.123,19.493z M286.302,114.26c-0.799,0.999-0.799,0.999,0.1,5.897c0,0.101,0.301,0.2,0.5,0.4
		c0.301-0.3,0.7-0.6,1.1-0.9C287.501,117.859,286.901,116.16,286.302,114.26z M285.302,120.259c0-0.7,0-1.3,0-1.899
		c-0.499-0.2-0.898-0.4-1.699-0.9c0.301,1.4-0.5,2.699,1,3.399C284.902,120.658,285.103,120.358,285.302,120.259z M198.932,46.884
		c0.9,0,1.8,0,2.799,0c-0.1-0.399-0.1-0.6-0.2-0.999C200.632,46.084,199.632,45.584,198.932,46.884z M266.108,107.463
		c0.101,0,0.101,0,0.201,0c0-0.2,0-0.399,0-0.5c-0.101,0-0.101,0-0.201,0C266.108,107.063,266.108,107.262,266.108,107.463z"/>
	<path display="none" fill="#FCFCFD" d="M170.942,117.659c0.1,0.6,0,1.1,0.3,1.8c1.899,3.898,4.898,6.298,8.997,7.397
		c1.799,0.5,3.599,0.8,5.498,1.199c2,0.4,4.099,0,5.998,0.5c2.099,0.6,4.199,0.3,6.298,0.5c0.2,0,0.4,0,0.5,0c0,0.8,0,1.6,0,2.398
		c0,2,0.2,3.999-0.6,5.898c4.698,1.999,6.897,2.699,11.896,3.599c1.2,0.2,2.599,0.1,3.499,0.6c1.2,0.6,2.299,0.101,3.299,0.5
		c1.7,0.7,3.499,0.1,5.198,0.6c2.999,0.8,5.998,0.4,8.997,0.5s5.998,0.3,8.896-0.1c3.699-0.5,7.498-0.5,10.996-2.1
		c3,0,5.599-1.699,8.498-2.299c2.699-0.6,5.298-1.8,8.097-2.6c0.5-0.1,0.899-0.399,1.499-0.8c0-4.298,0-8.797,0-13.295
		c0.2,0,0.4,0,0.5,0c0.1,1.6-0.399,3.299,0.7,4.798c0.899,0.3,1.8,0,2.799,0.5c0.999,0.4,2.399,0.5,3.599-0.2
		c0.4-0.199,1-0.199,1.5-0.199c1.699,0,3.398-0.5,4.998-1c0.699-0.2,1.399,0,2.1-0.1c0.699-0.101,1.299-0.4,1.898-0.5
		c2.6-0.3,4.998-1.399,7.197-2.799c2.1-1.3,3.5-3.199,3.699-5.898c0.1-1.199,0.699-2.299,0.5-3.599
		c-0.5-3.499-0.9-6.997-1.899-10.297c-0.2-0.799-0.5-1.699-0.2-2.299c0.7-1.399,0.301-2.799,0.5-4.099
		c0.699-1.1,1.399-2.199,2-3.099c0.199-1.1,0.299-2.1,0.499-3.299c-0.499-1.1-0.999-2.499-1.499-3.799
		c-3.199-2.399-6.798-3.299-10.597-3.599c0.8,2.399,2.999,3.398,3.799,5.598c0.3,0.9,0.7,1.8,0.399,2.499
		c-0.399,0.8-0.299,1.8-0.999,2.6c-2.199,2.299-3.899,3.299-7.497,4.198c0,0.3,0,0.7,0,1.1c1.699,1.2,3.898,1.5,5.298,3.299
		c-1.3,1.8-3.499,2.6-5.398,2.899c-2.698,0.5-5.397,1.199-8.197,1.199c-0.899,0-1.8,0.4-2.698,0.5c-0.9,0.1-1.7,0-2.5,0.5
		c-0.5,0.3-1.399,0.1-2.398,0.1c0.299-0.6,0.399-0.999,0.699-1.3c4.299-4.498,7.897-9.396,11.196-14.595
		c2.3-3.599,4.298-7.397,5.897-11.296c1.3-3.099,2.699-6.298,3.699-9.497c0.699-2.398,1.199-4.897,1.999-7.297
		c0.7-2.3,0.899-4.599,1.499-6.897c0.5-1.899,0.5-3.999,0.601-5.998c0.1-1.399,0.8-2.6,0.6-4.099c-0.101-1.3-0.399-2.6,0.399-3.799
		c0.2-0.399,0-1.1,0-1.6c0-3.299-0.399-6.697,0.101-9.996c0.7-5.099,0.3-10.097,0.399-15.195c0.1-5.098,0-10.296,0-15.395
		c2,0,3.999,0,5.898,0c0,48.083,0,96.066,0,144.15c-43.186,0-86.37,0-129.555,0c0-8.797,0-17.594,0-26.491
		C170.542,117.659,170.742,117.659,170.942,117.659z"/>
	<path display="none" fill="#FCFCFC" d="M180.639,0c0,1.5,0.3,3.1-0.1,4.599c-0.7,2.999-0.1,5.998-0.6,8.896
		c-0.5,2.699-0.4,5.299-0.4,7.897c-0.1,2.699-0.1,5.398,0,8.098c0.1,3.398-0.8,6.598-0.6,9.996c0.2,3.299-0.1,6.698,0.1,9.997
		c0.2,3.898,0.3,7.797,0.6,11.596c0.3,3.599,1.299,7.298,2.299,10.896c1.399,4.798,3.299,9.196,5.198,13.795
		c0.9,2.1,2,4.198,2.999,6.298c2.1,3.998,4.499,7.897,7.198,11.596c1.399,1.8,2.899,3.299,5.198,4.898c-2,0-3.499,0-5.098-0.5
		c-1.4-0.5-2.899-0.399-4.299-0.6c-1.5-0.3-2.899-0.7-4.398-1.1c-1.399-0.3-2.799-0.6-4.099-1.1c-1.399-0.5-2.699-1.3-4.099-1.899
		c1.5-1.699,3.299-2.999,5.798-2.999c0-0.399,0-0.8,0-1.399c-3.599-1.3-6.898-3.199-8.597-7.298c0.7-1.399,0.5-3.198,1.699-4.598
		c0.5-0.601,0.9-1.3,1.4-1.8c0.7-0.699,1.599-1.199,2.599-1.999c-2.699-0.6-4.898,0.3-7.097,0.899s-3.999,1.899-5.098,4.599
		c0-0.2,0,0.2,0,0.5c-0.3,2.599,0.1,5.098,1.1,7.397c0.6,1.399,0.7,2.898,0.399,4.099c-0.6,2.099-1,4.298-1.399,6.397
		c-0.4,2.199-1.1,4.398-0.7,6.798c-0.2,0-0.4,0-0.5,0c0-37.987,0-75.974,0-113.961C173.741,0,177.24,0,180.639,0z"/>
	<path fill="#6A6A73" d="M292.899,0c-0.1,0.2-0.3,0.5-0.399,0.5c-0.601,0.1-1.3,0-1.899,0c-27.391,0-54.881,0-82.271,0
		c-0.8,0-1.799,0.7-2.299-0.5C234.92,0,263.909,0,292.899,0z"/>
	<path fill="#72727A" d="M170.342,113.961c0.2,0,0.4,0,0.5,0c0,1.299,0,2.499,0,3.799c-0.2,0-0.4,0-0.5,0
		C170.342,116.46,170.342,115.16,170.342,113.961z"/>
	<path display="none" fill="#FCFCFC" d="M216.826,113.961c-1.5-0.4-2.599-1.6-3.799-2.499c-2.799-2.1-5.598-4.199-7.997-6.798
		c-2.199-2.499-4.199-5.099-6.198-7.697c-3.699-4.698-6.198-9.997-8.597-15.395c-1.6-3.499-2.799-7.298-3.699-11.196
		c-0.7-2.899-1.299-5.898-2-8.897c-0.399-1.599-1-3.398-0.6-5.198c-1-3.898-0.4-7.896-0.5-11.896c-0.1-3.999,0.1-7.897-0.1-11.896
		c-0.1-1.7,0.6-3.199,0.7-4.898c0-0.2,0.4-0.4,0.7-0.7c0.5,0,1.2-0.199,1.699,0c1.1,0.7,2.1,0.7,3.199,0c0.4-0.199,1-0.1,1.599-0.1
		c15.595,0,31.089,0,46.684,0c1.6,0,2.999,0.8,4.598,0.6c1.5-0.2,3,0,4.6,0c0,3.999,0,7.798,0,11.696
		c-1.4,0.199-2.8,0.6-4.299,0.699c-1.4,0.101-2.6,0.6-3.898,1c-1.4,0.399-2.799,0.699-4.1,1.199
		c-4.098,1.699-7.797,3.999-9.796,8.197c-0.2,0.4-0.5,0.7-0.9,1.1c-0.8-0.6-1.5-1.1-1.899-2.099
		c-0.899-2.199-2.199-4.299-3.099-6.498c-0.3-0.8-0.9-1.399-1.5-1.8c-1.399-0.999-2.899-1.999-4.499-2.898
		c-0.8-0.5-1.5-1.1-2.599-0.9c-0.5,0.101-0.9-0.3-1.399-0.399c-0.8-0.1-1.7-0.3-2.299,0.1c-0.6,0.4-1.2,0.4-1.699,0.4
		c-2.599-0.2-5.099,0.5-7.698,1.1c-2.899,0-5.798,0-8.597,0c0-0.8-0.7-0.5-1.1-0.5c-0.8,0.2-1.7,0.2-2.399,0.6
		c-0.6,0.3-1.199,0.899-0.6,1.899c0.5,0.3,1.5,0.5,1.5,1.6c1.299,1.199,2.399,2.599,4.398,2.999
		c1.899,0.399,3.599,1.699,5.398,2.399c3.399,1.399,6.798,2.698,10.197,3.998c0.3,0.101,0.7,0,1.1,0c0,0.4,0,0.7,0,1.1
		c-2-0.2-4.099,0.4-5.998-0.399c-1.899-0.7-4.099,0.6-5.798-0.8c-2,0.6-0.4,2.699-2.299,3.499c1.899,0.6,3.199,0.999,4.499,1.399
		c0.2,0.199,0.4,0.399,0.5,0.499c0.7,1.3,1.799,2.2,3.199,2.1c1.5,0,2.599,0.8,3.599,1.699c0.899,0,1.799-0.1,2.699,0
		c0.799,0.101,1.599,0.4,2.499,0.5c3.099,0.6,3.399,0.101,5.698,2.899c0.4,0.5,1,0.999,1.6,1.399c0.7,0.6,1.6,0.999,2,1.699
		c0.7,1.499,1.899,1.899,3.398,2.199c1.4,0.3,2.599,0.7,3.999,0.2c1.399-0.5,2.699-0.9,3.698-2.1c0.2-0.3,0.7-0.399,1.1-0.6
		c0-0.3,0-0.6,0-0.8c0.2-0.2,0.4-0.399,0.5-0.5c0.2-0.2,0.4-0.399,0.5-0.5c0.2-0.199,0.4-0.399,0.5-0.499
		c1.2-0.9,2.299-1.8,3.5-2.699c1.699-1.3,3.498-2.399,5.797-2.199c0.301,0,0.601-0.101,1.301-0.2c-1-1.3-2.8-1.6-2.699-2.699
		c-0.301-1.699-0.6-2.898-0.801-3.799c-3.198-1.399-5.897-1.1-8.696,1.1c0.1-0.699,0-1.1,0.1-1.299c1.2-1.6,2.899-2.399,4.999-2.3
		c0.999,0,1.999,0,2.998,0c1,0,1.8-0.6,2.5-1.199c0.299-0.2,0.299-0.8,0.6-1c1.199-0.8,2.398-1.499,3.898-2.499
		c0,1.199,0.3,2.399-0.1,3.099c-0.6,1-0.4,2-0.4,3.1c0,4.498,0,8.996,0,13.495c0,0.5,0,0.999,0,1.499
		c-3.199,1.1-6.598,1.699-8.497,5.099c-2.899-1-5.998-0.5-8.997-0.6c-4.099-0.101-7.797,1.299-11.296,3.299
		c-1.599,0.899-2.999,2.398-4.398,3.698c-0.8,0.7-1.5,1.5-2.499,2.499c0.2,1.699,0.4,3.499,0.7,5.398c1.1,0.899,0.1,2.299,0.9,3.398
		c0.6,0.9,0.3,2.399,0.7,3.499c0.6,1.899,0.6,3.999,1.399,5.898c0.5,1.1,0.5,2.299,0.7,3.498c0.4,2.3,0.8,4.599,1.5,6.898
		C216.626,110.761,216.626,112.361,216.826,113.961z"/>
	<path display="none" fill="#FDFDFD" d="M270.907,94.067c-2.799-9.597-4.799-19.093-6.697-28.59c-2,0-4.099,0-6.299,0
		c-0.299-1.399-0.1-2.699-0.1-3.999c0-1.199-0.299-2.398,0.5-3.599c0.301-0.399,0-1.1,0-1.6c0-2.398-0.3-4.897,0.1-7.297
		c0.7-3.898,0-7.798,0.6-11.596c0.5-3.1,0.201-6.099,0.5-9.297c3.6,0,7.198,0,10.797,0c1.199,0,2.398,0.199,3.599-0.4
		c0.8-0.399,2.199-0.3,3.099,0.101c0.801,0.399,1.5,0.3,2.299,0.3c3,0,6.099,0,9.297,0c0,4.798,0.201,9.396-0.1,14.095
		c-0.199,2.1,0,4.198-0.5,6.198c-0.699,2.698-0.399,5.598-1.499,8.197c0.2,2.998-1.2,5.598-1.699,8.496c-0.2,1.3-0.7,2.6-1.2,3.799
		c-0.699,2-1.398,3.899-2.099,5.898s-1.399,3.898-2.2,5.798c-1.898,4.198-4.098,8.297-6.896,11.996
		C272.007,93.068,271.507,93.468,270.907,94.067z"/>
	<path display="none" fill="#FAFAFA" d="M184.438,16.694c0-2.299-0.3-4.398,0.1-6.397c0.3-1.8,0.4-3.599,0.5-5.498
		c2.299,0,4.499-0.4,6.498,0.1c3.698,0.8,7.397,0.4,11.096,0.4c28.79,0.1,57.48,0,86.37,0c0,3.898,0,7.797,0,11.896
		c-0.8,0-1.6,0-2.398,0c-22.492,0-44.984,0-67.377,0c-2.299,0-4.498-0.8-6.797-0.6c-2.299,0.199-4.698,0-6.998,0
		c-2.199,0-4.499,0-6.698,0c-2.299,0-4.698,0-6.998,0C189.335,16.694,187.037,16.694,184.438,16.694z M285.402,10.797
		c0.399-0.101,0.7-0.101,1.399-0.301c-0.5-0.6-0.899-0.999-1.1-1.199c-1.1,0-2.1,0-3.199,0c0.2,1.199,0.4,2.3,0.6,3.399
		c-0.199,0.3-0.399,0.6-0.6,0.999c0.4,0.3,0.6,0.6,0.9,0.8c0.699,0,1.499,0,2.199,0c1-0.699,0.799-1.6,0.699-2.499
		c-0.3-0.2-0.699-0.399-1-0.7C285.402,11.196,285.402,10.996,285.402,10.797z M268.208,8.697c0,2.1,0,3.898,0,5.897
		c1.5-0.199,2.899,0.101,4.099-0.199c0-0.6,0-1.1,0-1.5c-0.899-0.1-1.699-0.1-2.599-0.199c0-0.101,0-0.301,0-0.4
		c0.899,0,1.699,0,2.599,0c0-0.6,0-1,0-1.499c-0.899-0.101-1.699-0.2-2.599-0.2c0-0.101,0-0.3,0-0.4c0.899,0,1.699,0,2.499,0
		c0-0.6,0-0.999,0-1.499C270.907,8.697,269.608,8.697,268.208,8.697z M214.627,7.897c0,1.399,0.1,2.399,0,3.398
		c-0.1,0.9-0.4,1.7-0.6,2.6c1.399,0,2.499,0,3.599,0c0.4-0.4,0.8-0.8,1.399-1.399c-0.2-1.2-0.4-2.499-0.6-3.999
		C217.126,8.397,216.026,8.197,214.627,7.897z M277.905,14.594c0-0.1-0.1-0.3-0.1-0.399c0.6-0.399,1.199-0.7,1.998-1.199
		c-0.6-0.9-0.999-1.5-1.398-2.1c0.299-0.1,0.699-0.3,1.299-0.6c-0.6-0.7-1.1-1.3-1.6-1.8c-0.699,0-1.199,0-1.699,0
		c0.1,0.101,0.2,0.2,0.301,0.4c-0.601,0.399-1.2,0.699-2,1.199c0.6,0.899,1,1.5,1.399,2.1c-0.3,0.1-0.7,0.3-1.3,0.6
		c0.6,0.699,1.1,1.3,1.6,1.799C277.005,14.594,277.405,14.594,277.905,14.594z M261.61,10.896c0.8,1.3,1.4,2.299,2,3.199
		c0.199,0.3,0.699,0.399,1.199,0.6c0-2.199,0-4.099,0-6.098c-0.3,0-0.6,0-1,0c0,0.899,0,1.699,0,2.599c-0.1,0-0.199,0.1-0.399,0.1
		c-0.5-0.899-1-1.799-1.499-2.599c-0.4,0-0.801,0-1.2,0c0,1.999,0,3.898,0,5.897c0.399-0.1,0.6-0.1,0.899-0.199
		C261.61,13.395,261.61,12.496,261.61,10.896z M198.333,11.896c0.1,0.699,0.2,1.399,0.2,2.299c0.399-0.1,0.7-0.2,0.799-0.2
		c0-1.999,0-3.799,0-5.698c0,0-0.1-0.1-0.3-0.199c-0.2,0.1-0.4,0.1-0.7,0.3c0,0.6,0,1.199,0,1.999c-0.8,0-1.399-0.1-2.199-0.1
		c0-0.8,0-1.399,0-2c-0.4,0-0.6,0-0.9,0.101c0,1.999,0,3.898,0,5.897c0.4-0.1,0.6-0.1,0.9-0.1c0.1-0.7,0.1-1.399,0.2-2.1
		C197.033,11.896,197.633,11.896,198.333,11.896z M241.718,8.697c0,1.899,0,3.599,0,5.298c0.5,0,0.899,0,1.399,0
		c0.1-0.5,0.2-0.999,0.2-1.299c0.999-0.5,1.799-1,2.498-1.3c0.101-1.6,0-1.6-0.699-2.6C244.116,8.697,242.917,8.697,241.718,8.697z
		 M235.319,8.697c-0.6,1.699-1.199,3.398-1.899,5.298c0.6,0,1.1,0.101,1.5,0.101c0.2-0.4,0.3-0.8,0.3-0.9
		c1.5-0.999,1.699,1.1,2.999,0.9c0.6-2-0.999-3.499-1.1-5.398C236.419,8.697,235.919,8.697,235.319,8.697z M188.736,11.596
		c-0.2-0.9,0.1-1.5,0.9-1.899c0.799,0.199,1.5,0.399,2.299,0.6c0-0.7,0-1.1,0-1.699c-1-0.101-1.999-0.4-2.799-0.601
		c-0.6,0.601-1,1-1.399,1.399c0,1.2,0,2.399,0,3.499c0.8,0.4,1.5,0.8,2.299,1.3c0.5-0.899,2.199-0.6,1.899-2.399
		c-0.799,0.2-1.599,0.4-2.399,0.6C189.236,12.095,188.936,11.896,188.736,11.596z M207.129,13.895c1.6,0,2.899,0,4.199,0
		c0-0.5,0-0.899,0-1.5c-0.9,0-1.7,0-2.799,0c0-1.599,0-2.898,0-4.198c-0.6,0-1,0-1.5,0
		C207.129,10.196,207.129,11.996,207.129,13.895z M230.821,8.597c-0.5,0.1-0.7,0.1-0.9,0.199c-0.1,0.7-0.1,1.399-0.2,1.899
		c-0.8,0-1.399,0-2,0c-0.1-0.8-0.2-1.399-0.2-2.199c-0.4,0.2-0.7,0.2-0.8,0.3c0,1.8,0,3.499,0,5.198c0.3,0,0.6,0,1,0
		c0-0.699,0-1.399,0-1.999c0.8,0,1.4,0,2.199,0c0,0.7,0,1.399,0,2.1c0.4-0.101,0.7-0.101,1-0.101
		C230.821,12.196,230.821,10.496,230.821,8.597z M250.214,11.896c0.801,0,1.4,0,1.9,0c0.299-0.3,0.5-0.5,0.799-0.8
		c0.101-0.9,0.301-1.8-0.799-2.499c-0.4,0-0.9,0-1.4,0s-0.999,0.1-1.499,0.1c0.101,1.699,0.101,3.099-0.5,4.599
		c-0.1,0.199,0.101,0.5,0.101,0.699c0.5,0,0.899,0,1.499,0C250.214,13.296,250.214,12.696,250.214,11.896z M202.831,8.197
		c0,1.999,0,3.898,0,5.798c0.5,0,0.899,0,1.399,0c0-1.999,0-3.898,0-5.798C203.73,8.197,203.331,8.197,202.831,8.197z
		 M257.212,14.495c0-1.999,0-3.898,0-5.798c-0.3,0-0.6,0-0.899,0c0,1.999,0,3.898,0,5.798
		C256.612,14.495,256.912,14.495,257.212,14.495z"/>
	<path display="none" fill="#F2F2F3" d="M245.316,69.176c0.8-0.199,1.899,0.301,2.799-0.499c0.101-0.101,0.6-0.101,0.8,0
		c2.699,0.999,5.398,0.3,7.997,0.6c1.1-0.7,2.099-1.3,3.299-2c0.7,1.7,1.2,3.1,1.499,4.699c0.5,2.698,1.301,5.397,1.9,8.097
		c0.399,1.899,0.899,3.799,1.199,5.698c0.3,1.799,1.199,3.398,1.1,5.198c1.1,0.999,0.3,2.199,0.6,3.398
		c-1.899,0.7-3.699,1.399-5.697,1.3c-2.6-0.2-4.898,0.6-7.098,1.699c-3.1,1.5-6.099,3.099-9.297,4.799
		c-3.999-0.2-7.898,0.8-11.896,2.099c-3.798,1.3-6.998,3.499-10.496,5.599c-0.4-0.5-0.8-0.8-0.9-1.3c-0.4-1.699-0.8-3.499-1.1-5.198
		s-0.5-3.299-1-4.998c-0.3-0.899-0.2-1.8-0.5-2.799c-0.2-0.8-0.7-1.6-0.6-2.399c0.1-1-0.3-1.8-0.6-2.799
		c-0.6-2.199-1.2-4.398-1.8-6.598c-0.2-0.7-0.399-1.3-0.399-1.6c1.499-2.899,3.698-4.499,6.098-5.898
		c2.399-1.399,4.998-2.398,7.697-2.799c2.799-0.5,7.198-0.1,8.497,0.5C239.918,72.474,242.517,70.876,245.316,69.176z
		 M243.217,99.065c-0.3-1.599-0.7-3.099-0.999-4.698c-0.2-1.1,0-2.398-0.6-3.198c-0.801-1.1,0.199-2.5-0.9-3.399
		c-0.3-2.399-1.199-4.698-1.699-7.098c-0.4-1.999-1.199-3.799-2.299-5.498c-3-0.3-5.798,0.2-8.697,0.9
		c-4.299,1.1-7.897,2.998-10.497,6.298c1.899,7.997,3.799,15.794,5.698,23.691c0.799-0.4,1.499-0.8,2.199-1.199
		c0.2-0.101,0.5-0.2,0.7-0.301c3.898-2.898,8.597-3.698,13.195-4.498C240.618,99.765,241.917,99.565,243.217,99.065z
		 M258.312,70.676c-1.1,0.3-1.699,0.5-2.398,0.5c-2.8,0-5.599,0-8.397,0c-0.5,0-1.1,0-1.499,0.199c-2.4,0.8-4.6,1.8-5.998,3.999
		c0,0.2-0.101,0.399,0,0.6c0.999,2.499,1.699,5.099,2.498,7.598c0.801,2.699,1.2,5.398,1.8,8.197c0.5,2.099,0.899,4.298,1.3,6.497
		c1.899-0.699,3.599-1.399,5.298-1.999c4.898-1.899,9.197-3.398,13.596-3.599c-0.601-6.798-2.999-13.096-4.999-19.493
		C259.212,72.275,258.712,71.475,258.312,70.676z"/>
	<path display="none" fill="#FBFBFB" d="M216.726,113.961c1.3,0.199,2.399-0.3,3.399-1c3.299-1.999,6.698-3.698,10.296-4.998
		c2.399-0.899,4.898-1.699,7.498-2.1c0.8-0.1,1.6-0.399,2.499-0.5c0.8-0.1,1.499,0,2.199-0.499c0.5-0.301,1.6-0.4,2.199,1.1
		c-0.101,1.299,0,2.998-0.399,4.897c-0.5,2.1-0.101,4.398-0.101,6.798c-3.599,1.399-7.197,2.6-10.696,4.099
		c-1.1,0.5-2.099,0.1-2.599,0.2C225.623,119.858,221.325,116.66,216.726,113.961z"/>
	<path display="none" fill="#F9F9F9" d="M198.433,129.055c-0.2,0-0.4,0-0.5,0c0-2.999,0-5.898,0-8.897
		c-0.899-0.899-1.299-1.999-1-3.599c1-0.3,2.099-0.899,3.199-0.899c1.399,0,2.699-0.3,4.099,0.399c1.1,0.5,2.799,0.3,3.799-0.699
		c0.1-0.3,0.1-0.5,0.2-0.8c0.6,0,1.1,0,1.6,0c6.598,5.498,14.095,9.497,22.092,12.695c-2.099-0.1-4.199,0.8-6.298-0.2
		c-0.8-0.399-1.899-0.1-2.899-0.1c-1.3,0-2.899,0.4-3.999-0.1c-1.399-0.7-2.899,0.1-4.099-0.5s-2.699,0.1-3.599-1
		c-3.799-0.199-7.198-1.6-10.796-2.699c-0.5-0.199-1.1-0.399-1.799-0.6C198.433,124.457,198.433,126.756,198.433,129.055z"/>
	<path display="none" fill="#F9F9F9" d="M197.933,39.386c0.7,0.999,1.7,0.5,2.499,0.399c0.5-0.1,1-0.6,1.7-0.899
		c1.599,0,3.399,0,5.198,0c1.1,0,2.199,0,3.299,0.5c2.299,1.1,4.698,1.899,6.498,3.799c0.9,0.999,1.5,1.999,1.899,3.198
		c0.8,2.3,2,4.398,3.699,6.298c1.399,1.5,2.699,3.199,4.199,4.898c-0.8,0.6-1.6,1.2-2.699,1.899
		c-2.999-2.999-5.898-5.998-10.196-7.197c0.7,0,1.399,0,2.099,0c0-0.6,0-1,0-1.6c-1.399,0-2.699,0-4.199,0
		c0-0.5-0.1-0.899-0.1-1.399c-0.399-0.3-1-0.6-1.399-1c-0.4-0.399-0.6-0.999-0.899-1.699c-0.7,0.2-1.3,0.4-2.199,0.7
		c-0.5-0.5-1.1-1.2-1.899-2.1c-1,0-2.299,0-3.699,0c-0.1-0.3-0.1-0.6-0.2-0.899c0.5-0.101,1-0.2,2.199-0.4
		c-0.799-0.2-1.199-0.399-1.599-0.5c0.1-0.199,0.2-0.3,0.4-0.499c-4.199,0-8.397,0-12.696,0c0.9-1,1.899-1.1,2.999-1
		c1.5,0.1,3.099,0,4.598,0c0.5-0.3,1.1-0.5,2-1c-0.899-0.3-1.5-0.5-2-0.6c-0.5,0-1.1,0-1.599,0c0-0.2,0-0.399,0-0.5
		c0.5-0.199,1.1-0.399,1.599-0.5C197.533,39.386,197.733,39.386,197.933,39.386z"/>
	<path display="none" fill="#F9F9F9" d="M269.208,122.057c-0.2,0-0.4,0-0.5,0c0-0.699,0-1.399,0-2.099
		c-2.499,0.399-4.598,1.399-6.697,2.199c-3.299,1.199-6.798,2.199-10.097,3.498c-1,0.4-2.1,0.3-3.199,0.601
		c-2.099,0.6-4.298,0.399-6.497,0.699c-1.2,0.1-2.399,0.4-3.499,0.5c-1.2,0.1-2.3,0-3.499,0c0-0.4,0-0.7,0-1.1
		c4.599-1.2,8.896-3.199,12.996-5.599c2.199-1.299,4.298-2.698,6.396-4.098c0.101-0.101,0.4-0.101,0.5-0.2
		c1.301-1.3,2.799-2.499,4.898-2.799c1.699,0.399,3.499,2.199,5.898,0.8c0.5-0.301,1.399,0,2.1-0.101c0.6,0,1.1-0.2,1.999-0.399
		c0.399,0.199,1.1,0.6,1.8,1.1c0.299,2.099-0.601,3.498-2.6,4.298C269.208,120.259,269.208,121.158,269.208,122.057z"/>
	<path display="none" fill="#F9F9F9" d="M232.421,64.777c-0.2,0.2-0.4,0.4-0.5,0.5c-0.2,0.2-0.4,0.4-0.5,0.5
		c-0.8,0.1-1.599,0.1-2.499,0.5c-2.599,1.1-4.898,0.8-7.597-0.6c-2.399-1.2-4.599-2.699-6.398-4.698c-0.7-0.8-1.5-1.5-2.399-1.899
		c-1.899-0.7-3.699-1.6-5.898-1.5c-1.2,0.101-2.399-0.3-3.499-0.5c-0.1,0-0.1-0.1-0.2-0.199c-0.1-0.3-0.2-0.601-0.3-0.9
		c-0.3,0-0.6,0-0.899,0c0-0.199,0-0.399,0-0.5c0-0.399,0-0.699,0-1.1c0-0.199,0-0.399,0-0.499c1.299,0,2.699,0,3.999,0
		c1.6,0,3.299-0.2,4.898,0.499c0.899,0.4,1.999,0.5,2.999,0.601c1,0.1,1.999,0,2.699,0c1.7,0.8,2.799,1.899,3.999,3.198
		c1.1,1.2,2.699,2,3.899,2.899c1-0.3,1.699-0.5,2.599-0.8c1.5-1.499,1.699-1.499,3.499-1.999c1.3,0.999,2.5,1.999,3.899,3.099
		c-0.6,1-1.799,1.6-1.3,2.799C232.821,64.477,232.621,64.578,232.421,64.777z M203.831,54.681c0,0.1,0,0.1,0,0.199
		c0.2,0,0.4,0,0.5,0c0-0.1,0-0.1,0-0.199C204.23,54.681,204.031,54.681,203.831,54.681z"/>
	<path display="none" fill="#F7F7F7" d="M256.812,99.365c0.601-0.399,1.2-0.699,1.801-1.1c1.599-0.199,3.198-0.499,4.798-0.6
		c1.499-0.1,2.999-1.199,4.698-0.3c-3.1,4.599-7.397,8.197-11.396,12.296C256.812,106.263,256.812,102.965,256.812,99.365z"/>
	<path display="none" fill="#F2F2F3" d="M231.821,49.682c0.9-1.699,1.899-2.999,3.598-3.998c1.4-0.8,2.5-2.199,3.799-3.1
		c1-0.699,2.199-1.199,3.399-1.499c0.6-0.2,1.399,0.399,2.099,0.6c0,0.4,0,0.8,0,1.2c-2.599,1.898-6.297,2.299-8.097,5.498
		C235.12,48.783,233.521,49.183,231.821,49.682z"/>
	<path display="none" fill="#EAEAEB" d="M238.818,132.854c0.899,0,1.499,0,2.1,0c0.3,1.898,0.499,3.798,0.8,5.798
		c-0.7,0.3-1.3,0.6-2,0.899c-0.399-0.7-0.6-1.199-0.899-1.699c-0.3-0.4-0.8-0.6-1.499-1c0,1.2,0,1.999,0,3.199
		c-0.7-0.3-1.1-0.5-1.699-0.8c0.299-2.199-1.2-4.198-0.301-6.397c2,0.1,2.799,1.898,4.1,3.099
		C239.318,135.053,239.118,134.053,238.818,132.854z"/>
	<path display="none" fill="#EAEAEB" d="M218.226,130.955c1.6,0.699,3.199,0.699,3.999,2.398c-0.2,0.4-0.5,1-0.6,1.7
		c-0.1,0.6,0,1.199,0,1.799c-0.6,0.899-1.1,1.6-1.7,2.399c-1,0-1.799,0-2.999,0c-0.3-0.4-0.7-0.899-1.3-1.6
		C217.026,135.852,216.426,133.053,218.226,130.955z M219.925,136.153c-0.799,0-1.299,0-1.899,0c-0.4,1.1-0.1,1.699,0.899,2.099
		C219.925,137.952,220.225,137.253,219.925,136.153z M221.125,134.653c-0.899-0.699-1.299-1-1.799-1.399
		c-0.4,0.5-0.7,0.899-1.1,1.399c0.5,0.5,0.9,0.8,0.8,0.7C219.725,135.053,220.325,134.853,221.125,134.653z"/>
	<path display="none" fill="#EAEAEB" d="M178.439,117.659c-0.8,0.5-1.699,1.1-2.499,1.6c-0.2-0.2-0.4-0.399-0.8-0.8
		c0.4-0.2,0.9-0.5,1-0.6c0-0.899,0-1.3,0-1.699c-1.299-0.8-1.899,0.6-2.699,1.1c-1-1.2-0.1-2.1,0.3-2.8
		c0.5-0.999,1.399-1.799,2.199-2.799c0.4,0,0.899,0.101,1.599,0.101c-0.5,0.999-0.799,1.699-1.199,2.398c0.2,0.2,0.5,0.5,0.8,0.8
		c0.7-0.399,1.299-0.8,1.999-1.299c0.9,1.299-0.3,2.299-0.2,3.299C178.839,117.359,178.639,117.559,178.439,117.659z"/>
	<path display="none" fill="#D2D2D5" d="M263.909,22.492c-0.1,0.8-0.199,1.5-0.199,2.199c-0.4,0.2-0.8,0.5-1.399,0.8
		c0-2.199,0-4.099,0-6.098c0.399,0,0.7,0,1.199-0.1c0.601,0.899,1.1,1.799,1.899,2.898c0.1-1,0.1-1.899,0.2-2.999
		c0.6,0.3,1.1,0.5,1.499,0.7c0,1.899,0,3.599,0,5.298C264.609,25.791,264.81,23.692,263.909,22.492z"/>
	<path display="none" fill="#CBCBCE" d="M255.712,19.493c1.4,0,2.699,0,4.1,0c0,0.5,0,0.9,0,1.5c-0.801,0-1.6,0-2.5,0
		c0,0.199,0,0.3-0.1,0.5c0.8,0.1,1.699,0.199,2.6,0.3c0,0.5,0,0.899,0,1.499c-0.9,0-1.699,0-2.6,0c0,0.101,0,0.3,0,0.4
		c0.8,0.1,1.6,0.1,2.6,0.199c0,0.4,0,0.9,0.1,1.5c-1.299,0-2.398,0-3.599,0c-0.2-0.2-0.399-0.4-0.601-0.6
		C255.712,23.092,255.712,21.392,255.712,19.493z"/>
	<path display="none" fill="#D2D2D5" d="M193.734,18.893c1.199,0,2.299,0,3.499,0c0.4,0.6,0.8,1.199,1.399,2.1
		c-0.2,0.899-0.4,1.999-0.6,2.999c-1.5,0.699-2.799,1.499-4.298,0.199C193.734,22.392,193.734,20.593,193.734,18.893z
		 M196.833,23.192c0-0.6,0-1.1,0-1.6c0.2-1.3-0.6-1.199-1.5-1c0,0.8,0,1.7,0,2.499C195.833,23.192,196.233,23.192,196.833,23.192z"
		/>
	<path display="none" fill="#F2F2F3" d="M232.721,45.885c-2.599,2.499-4.499,4.897-3.999,8.496c-0.7,0-1.3,0.101-2,0.101
		c-1.299-1.699-1.299-1.699-1.299-3.599c1.299-0.4,1.999-1.6,2.999-2.499c0.9-0.9,1.8-1.8,2.599-2.6
		C231.521,45.885,232.021,45.885,232.721,45.885z"/>
	<path display="none" fill="#EDEDEE" d="M187.136,120.358c0.8,0,1.6,0,2.599,0c0.1-0.8,0.1-1.699,0.2-2.799
		c0.7,0.3,1.399,0.5,2.099,0.8c-0.3,0.899,0.2,1.799-0.5,2.799c-0.4,0.6-0.1,1.699-0.1,2.799c-0.3,0.101-0.6,0.101-0.9,0.3
		c-0.2,0.101-0.4,0.3-0.7,0.6c-0.3-0.199-0.7-0.499-1-0.6c-0.3-0.1-0.7,0-1,0c-0.3-0.899-0.5-1.799-0.7-2.699
		C187.136,121.158,187.136,120.758,187.136,120.358z M189.636,123.057c0-0.5,0-1.1,0-1.699c-0.4,0.1-0.6,0.1-1,0.199
		c0,0.601,0.1,1,0.1,1.5C189.136,123.057,189.335,123.057,189.636,123.057z"/>
	<path display="none" fill="#CFCFD2" d="M200.632,18.993c0.5,0,0.899,0,1.5,0c0,1.4,0,2.8,0,4.199c0.6,0,1,0,1.599,0
		c0-1.399,0-2.799,0-4.199c0.4,0,0.6-0.199,0.7-0.1c0.3,0.2,0.5,0.4,0.899,0.7c0,0.999,0,2.099,0,3.299
		c-0.3,0.5-0.7,1.199-1.1,1.899c-0.8,0-1.6,0-2.399,0c-0.4-0.4-0.8-0.8-1.2-1.2C200.632,21.992,200.632,20.493,200.632,18.993z"/>
	<path display="none" fill="#DEDEE0" d="M191.335,18.993c0,0.5,0,0.9,0,1.6c-0.9,0-1.799,0-2.599,0c0,0.101,0,0.3,0,0.4
		c0.8,0.1,1.6,0.1,2.599,0.199c0,0.4,0,0.8,0,1.4c-0.8,0.1-1.699,0.1-2.599,0.199c0,0.101,0,0.2,0,0.4c0.9,0,1.699,0.1,2.599,0.1
		c0,0.5,0,0.899,0,1.399c-1.299,0.5-2.399,0.101-3.599-0.5c0-1.699,0-3.299,0-5.098C188.936,18.993,190.135,18.993,191.335,18.993z"
		/>
	<path display="none" fill="#EAEAEB" d="M279.005,25.291c-0.5-0.699-0.9-1.299-1.4-1.898c-0.1-0.101-0.299-0.101-0.699-0.2
		c-0.1,0.699-0.2,1.399-0.4,2.199c-0.299,0-0.5,0-0.799,0c0-1.899,0-3.898,0-5.798c0.799,0,1.6,0,2.299,0
		c0.6,0.399,1.199,0.699,2,1.199c-0.101,0.899-0.301,1.699-0.5,2.799c0.199,0.4,0.5,1,0.898,1.8
		C280.005,25.291,279.604,25.291,279.005,25.291z M276.505,21.192c0.6,0.5,1,0.8,1.5,1.2c0.4-0.4,0.6-0.8,0.9-1.2
		C278.204,21.192,277.604,21.192,276.505,21.192z"/>
	<path display="none" fill="#E4E4E6" d="M234.92,24.792c-1,0-1.899,0-2.799,0c-1.699-2.6-1.799-2.6,0-5.299c0.9,0,1.899,0,2.9,0
		C237.019,22.293,236.519,22.492,234.92,24.792z M234.32,22.692c0.2-0.8,0.6-1.999-1-2.199c-1.1,0.5-1,1.499-0.6,2.199
		c0.2,0.399,0.3,0.899,0.5,1.3c0.2,0,0.4,0,0.5,0C234.02,23.592,234.12,23.192,234.32,22.692z"/>
	<path display="none" fill="#F2F2F3" d="M231.421,56.48c0-0.3,0-0.8,0-1.3c2.1,0.101,3.499-2.398,5.898-1.499
		c-0.5,1.1-2.6,0.8-2.1,2.899c0.6,0.399,1.3,0.999,2,1.599c-0.201,0.2-0.601,0.5-0.9,0.7c-0.4,0.2-0.699,0.399-1.199,0.6
		C233.92,58.479,232.721,57.48,231.421,56.48z"/>
	<path display="none" fill="#DEDEE0" d="M214.227,25.191c-0.2-2.499,1.2-4.198,1.5-6.198c0.4,0,0.8,0,1.299-0.1
		c0.8,1.899,1.6,3.799,2,6.397c-1.2-0.799-1.899-1.199-2.699-1.699C215.727,24.092,215.127,24.492,214.227,25.191z"/>
	<path display="none" fill="#DEDEE0" d="M247.615,134.453c0,1,0,2,0,3.1c-1.3,0.5-2.599,0.899-3.898,1.399c-0.3-0.4-0.6-0.7-0.899-1
		c-0.4-2.1,1.1-3.199,2.499-4.698c0.499,0.2,1.1,0.399,1.8,0.7C247.216,134.053,247.415,134.254,247.615,134.453z M245.216,134.653
		c-0.399,1-0.699,1.6-0.999,2.399c0.7,0,1.199,0,1.999,0C245.815,136.253,245.616,135.552,245.216,134.653z"/>
	<path display="none" fill="#F7F7F7" d="M241.618,21.992c0-0.8,0-1.599,0-2.398c0.299-0.101,0.6-0.101,0.799-0.2
		c0.1,0.2,0.301,0.3,0.301,0.399c0,1.6,0,3.199,0,4.898c-0.5,0-0.9,0-1.4,0c-0.5-0.8-1-1.699-1.499-2.599
		c-0.101,0-0.2,0.1-0.399,0.1c0,0.8,0,1.699,0,2.6c-0.4,0-0.7,0-1,0c0-1.8,0-3.499,0-5.299c0.399,0,0.799,0,1.199-0.1
		c0.5,0.899,1,1.799,1.5,2.799C241.317,22.093,241.518,22.093,241.618,21.992z"/>
	<path display="none" fill="#E4E4E6" d="M207.429,23.592c0.2-1.399,0.4-2.699,0.5-3.998c0.9-0.4,1.6-0.601,2.099-0.8
		c0.7,0.699,1.2,1.199,1.899,1.999c-0.3,0.1-0.7,0.3-1.1,0.5c-0.2-0.2-0.8-0.6-1.5-1.1c0,1.199,0,1.999,0,2.898
		c0.9,0.5,1.1-0.499,1.7-0.899c0.899,0.3,1,1,0.899,1.8c-0.6,0.3-1.2,0.6-1.799,0.899C209.229,24.592,208.429,24.092,207.429,23.592
		z"/>
	<path display="none" fill="#E4E4E6" d="M226.823,139.851c-1.3-0.2-2.599-0.5-3.999-0.699c-0.6-1.5,1-2.899,0.4-4.599
		c0.7,0,1.1,0,1.699,0c-0.2,0.6-0.5,1.199-0.5,1.799c-0.1,0.601,0,1.2,0,2.199c0.6-0.499,0.9-0.699,1.1-0.899
		c0.3-0.8,0.5-1.6,0.8-2.499c0.3,0,0.7,0,1.2,0C227.922,136.852,227.322,138.352,226.823,139.851z"/>
	<path display="none" fill="#E4E4E6" d="M253.813,23.692c-0.5,0.499-0.7,0.8-1,1.1c-0.899,0-1.899,0-2.898,0
		c-0.2-0.2-0.4-0.4-0.6-0.7c0-1,0-2.199,0-3.398c0.299-0.3,0.799-0.8,1.299-1.2c0.5,0,1,0,1.699,0c0.4,0.5,0.9,1.1,1.4,1.699
		c-1.2,1.3-2.1-0.699-3.199,0.101c-0.1,1.6-0.1,1.6,1,2.699c0.299-0.4,0.499-0.8,0.799-1.399
		C252.714,22.892,253.113,23.192,253.813,23.692z"/>
	<path display="none" fill="#FDFDFD" d="M282.703,25.291c0-1.799,0-3.498,0-5.198c1.2,0,2.3,0,3.599,0c0.1,0.2,0.1,0.4,0.301,0.9
		c-0.9,0.1-1.8,0.1-2.699,0.199c-0.101,0.2-0.101,0.5-0.2,0.9c0.899,0.1,1.8,0.1,2.698,0.2c0,0.3,0.101,0.499,0.201,0.899
		c-0.9,0-1.8,0.1-2.699,0.1c0,0.3-0.101,0.6-0.101,1c0.899,0,1.8,0,2.699,0c0,0.399,0,0.699,0,0.999
		C285.202,25.291,284.103,25.291,282.703,25.291z"/>
	<path display="none" fill="#EAEAEB" d="M247.615,134.453c-0.2-0.199-0.399-0.399-0.499-0.499c0-0.2-0.101-0.4,0-0.5
		c0.299-0.4,0.699-0.7,1.1-1.1c0.299-0.4,0.6-0.8,0.999-1.3c1.6,1.3,0.999,2.899,1.2,4.099c0.699,0.5,1.199,0.899,1.699,1.3
		c-0.301,1.199-1,1.399-1.8,1.299c-0.7-0.3-1.2-1.199-1.699-3.198C248.115,134.453,247.815,134.453,247.615,134.453z"/>
	<path display="none" fill="#DEDEE0" d="M201.631,55.581c0,0.2,0,0.399,0,0.5c-1.299,0.1-2.599-0.4-3.799,0.499
		c-0.2-0.199-0.4-0.399-0.5-0.499c0.2-1.2-0.7-1.6-1.899-1.8c0.4-0.6,0.7-1,1.1-1.6c1.699,0.3,3.399,0.6,5.098,1c0,0,0,0.2,0,0.3
		c0,0.2,0,0.399,0,0.5c-0.5,0-1,0-1.6,0c0,0.399,0,0.699,0,1.1C200.632,55.581,201.131,55.581,201.631,55.581z"/>
	<path display="none" fill="#E4E4E6" d="M187.136,120.358c0,0.399,0,0.7,0,1.1c-1,0.1-0.3,1-0.7,1.499c-0.899,0-1.799,0-2.899,0
		c-0.1-0.199-0.4-0.399-0.7-0.699c0-0.7,0-1.5,0-2.399c0.7,0,1.399,0,2.099,0c0.1,0.2,0.2,0.3,0.3,0.6c0.3-0.6,0.5-0.999-0.3-1.1
		c-0.3,0-0.5,0-0.899,0c-0.1-0.3-0.1-0.6-0.2-0.999c0.6,0,1,0,1.6,0C185.837,118.959,186.437,119.658,187.136,120.358z
		 M185.437,121.058c-0.5,0-1,0-1.5,0c0,0.3,0,0.6,0,0.899c0.5,0,1,0,1.5,0C185.437,121.658,185.437,121.358,185.437,121.058z"/>
	<path display="none" fill="#DEDEE0" d="M229.322,133.954c0.5,0,0.9,0,1.299,0c0.2,0.6,0.5,1.199,0.7,1.799c0.1,0.2,0,0.5-0.1,0.8
		c-0.3,0.1-0.5,0.1-0.9,0.2c0,0.5,0,1.1,0,1.899c0.3,0.399,0.7,0.899,1.3,1.699c-1.2,0.1-2,0.1-3.199,0.1
		c0.2-0.699,0.4-1.199,0.5-1.799c0.1-0.4,0.3-1,0.1-1.2C227.922,136.052,229.222,135.053,229.322,133.954z"/>
	<path fill="#40404B" d="M197.333,39.386c-0.5,0.2-1.1,0.399-1.6,0.5c-1.299,0-2.499,0-3.799,0c-1.399,0-2.599-0.3-3.199-1.6
		c2.899,0,5.798,0,8.597,0c0,0.2,0,0.399,0,0.5C197.333,38.886,197.333,39.186,197.333,39.386z"/>
	<path display="none" fill="#DEDEE0" d="M179.039,117.159c0.9,0,1.6,0.4,2.199,1.1c-0.5,0-1,0-1.599,0c0,0.4,0.1,0.7,0.1,1
		c0.6-0.1,1.1-0.1,1.499-0.2c0-0.399,0-0.5,0-0.899c0.3,0,0.5,0,0.9,0c0.7,1.3-1,2.299-0.2,3.698c-0.8,0-1.4,0-2.1,0
		c-0.5-0.499-1.2-1.199-1.799-1.799c0.2-0.8,0.3-1.6,0.5-2.499C178.639,117.559,178.839,117.359,179.039,117.159z M180.039,120.458
		l0.1-0.1c-0.1-0.1-0.3-0.3-0.399-0.399c-0.1,0.1-0.1,0.1-0.2,0.199c0.1,0.101,0.3,0.3,1.799,0.9c-0.4-0.4-0.5-0.601-0.6-0.601
		c-0.3,0-0.5,0.101-0.8,0.2C180.439,120.758,180.739,120.858,180.039,120.458z"/>
	<path display="none" fill="#DEDEE0" d="M276.705,122.557c-0.6,0-0.999,0-1.599,0c0-1.399,0-2.699,0-4.099
		c-0.601-0.1-1.1-0.2-1.6-0.3c0-0.3,0-0.5-0.101-0.899c1.6,0,3.199,0,4.798,0c0,0.3,0,0.6,0,0.899c-0.499,0-0.898,0-1.299,0
		c-0.3,0.6-0.6,1.1-0.8,1.699c0.2,0.5,0.399,0.899,0.5,1.399C276.806,121.658,276.705,122.057,276.705,122.557z"/>
	<path display="none" fill="#DEDEE0" d="M271.207,25.891c-1.399-1-0.899-1.8-0.999-2.499c-0.101-0.7,0-1.4,0-2.2c-0.5,0-0.9,0-1.5,0
		c0-0.6-0.1-0.999-0.1-1.599c1.499,0,2.898,0,4.299,0c0,0.499,0,0.899,0,1.399c-0.5,0-0.9,0-1.5,0
		C271.308,22.492,271.308,23.992,271.207,25.891z"/>
	<path display="none" fill="#FDFDFD" d="M224.823,19.493c0,0.3,0,0.6,0,0.9c-0.5,0-0.899,0-1.5,0c0,1.499,0,2.799,0,4.298
		c-0.4,0.101-0.6,0.101-1.1,0.2c0-1.399,0-2.799,0-4.299c-0.6,0-1,0-1.5,0c-0.1-0.399-0.1-0.699-0.2-1.1
		C222.024,19.493,223.424,19.493,224.823,19.493z"/>
	<path display="none" fill="#CBCBCE" d="M227.123,19.493c0.5,0,0.9,0,1.399,0c0,1.8,0,3.499,0,5.299c-0.5,0-0.899,0-1.399,0
		C227.123,22.992,227.123,21.293,227.123,19.493z"/>
	<path display="none" fill="#DEDEE0" d="M286.302,114.26c0.6,1.899,1.199,3.599,1.699,5.397c-0.399,0.301-0.699,0.601-1.1,0.9
		c-0.299-0.2-0.5-0.3-0.5-0.4C285.503,115.26,285.503,115.26,286.302,114.26z"/>
	<path display="none" fill="#D2D2D5" d="M281.004,119.858c-0.399-1.1-1.399-0.2-2.099-0.699c0-0.2-0.101-0.4-0.101-0.7
		c0.2-0.1,0.3-0.2,0.499-0.3c2.1,0,2.1,0,3.3,0.7c0,0.899,0,1.898,0,2.998c-0.7,0-1.399,0-2.1,0c0-0.199,0-0.399,0-0.499
		C281.503,121.258,280.804,120.358,281.004,119.858z"/>
	<path display="none" fill="#EAEAEB" d="M194.734,122.057c0.3,0.8,0.4,1.6,0.7,2.499c-1,0-1.799,0-3.199,0
		c0.7-0.3,1-0.399,1.399-0.6c-0.2-0.899-0.4-1.899-0.6-3.099c1.2,0.1,2.199-0.4,2.799,0.999
		C195.333,121.958,195.034,122.057,194.734,122.057C194.634,122.057,194.634,122.057,194.734,122.057c-0.1-0.2-0.2-0.399-0.4-0.5
		c-0.1,0.101-0.1,0.101-0.2,0.2C194.334,121.857,194.434,121.958,194.734,122.057z"/>
	<path display="none" fill="#EDEDEE" d="M188.736,38.287c0.7,1.399,1.899,1.6,3.199,1.6c0,0.199,0,0.399,0,0.499
		c-1.599,0-3.099,0-4.998,0c0.2-0.999,0.4-1.898,0.6-2.698C188.036,37.886,188.636,37.487,188.736,38.287z"/>
	<path display="none" fill="#EAEAEB" d="M289.7,115.56c0,0.3,0,0.499,0,0.799c2,0.601,2,0.601,2.1,2.5c-0.3,0-0.6,0-1,0
		c-0.199,0-0.399,0-0.499,0c0-0.301,0-0.5,0-0.8c-0.5-0.3-1.1-0.7-1.6-1c0.101-0.6-0.5-1.3,0.5-1.499
		C289.301,115.56,289.501,115.56,289.7,115.56z"/>
	<path display="none" fill="#CBCBCE" d="M285.302,120.259c-0.199,0.1-0.399,0.399-0.699,0.6c-1.399-0.7-0.6-1.999-1-3.399
		c0.801,0.4,1.2,0.601,1.699,0.9C285.302,118.959,285.302,119.558,285.302,120.259z"/>
	<path display="none" fill="#CBCBCE" d="M232.421,45.385c0.5-1.2,1.599-1.399,2.699-1.6c0,0.3,0,0.5,0,0.699
		c-0.7,0.5-1.4,0.9-2.2,1.4C232.821,45.684,232.621,45.584,232.421,45.385z"/>
	<path display="none" fill="#CBCBCE" d="M198.932,46.884c0.7-1.3,1.7-0.8,2.599-0.999c0.1,0.399,0.1,0.6,0.2,0.999
		C200.732,46.884,199.832,46.884,198.932,46.884z"/>
	<path display="none" fill="#CBCBCE" d="M191.935,40.486c0-0.2,0-0.4,0-0.5c1.3,0,2.5,0,3.799,0c0,0.2,0,0.399,0,0.5
		C194.434,40.486,193.234,40.486,191.935,40.486z"/>
	<path display="none" fill="#DEDEE0" d="M280.504,121.458c0,0.2,0,0.399,0,0.5c-0.399,0-0.899,0-1.499,0c0-0.5-0.1-0.899-0.1-1.6
		c0.499,0,0.799,0,1.1,0C280.005,120.858,279.704,121.458,280.504,121.458z"/>
	<path fill="#72727A" d="M197.333,40.486c0.5,0.2,1.1,0.3,1.999,0.6c-0.899,0.5-1.5,0.7-1.999,1
		C197.333,41.586,197.333,40.986,197.333,40.486z"/>
	<path display="none" fill="#B1B1B6" d="M235.12,126.356c0,0.399,0,0.699,0,1.1c-0.7,0-1.4,0-2.1,0c0-0.1-0.1-0.2-0.1-0.4
		C233.72,126.856,234.42,126.556,235.12,126.356z"/>
	<path fill="#464652" d="M280.504,121.458c-0.8,0-0.499-0.7-0.499-1.1c0-0.8,0.699-0.5,1.1-0.5
		C280.804,120.358,281.503,121.258,280.504,121.458z"/>
	<path display="none" fill="#B1B1B6" d="M207.029,52.382c0-0.399,0-0.699,0-1.1c0.8-0.1,1.3,0.2,1.6,1.1
		C208.129,52.382,207.529,52.382,207.029,52.382z"/>
	<path display="none" fill="#B1B1B6" d="M290.2,118.759c0.2,0,0.4,0,0.5,0c-0.3,1-1,0.4-1.6,0.2
		C289.501,118.859,289.901,118.859,290.2,118.759z"/>
	<path display="none" fill="#CBCBCE" d="M289.7,115.56c-0.199,0-0.399,0-0.499,0c0.3-1,0.999-0.4,1.599-0.2
		C290.4,115.46,290.001,115.46,289.7,115.56z"/>
	<path display="none" fill="#CBCBCE" d="M235.12,43.285c0.299,0,0.699-0.1,1-0.1c0,0.1,0,0.199,0,0.3c-0.4,0.1-0.701,0.1-1.1,0.199
		C235.12,43.585,235.12,43.485,235.12,43.285z"/>
	<path display="none" fill="#B1B1B6" d="M184.937,119.358c0.8,0.101,0.6,0.5,0.3,1.1c-0.1-0.199-0.2-0.399-0.3-0.6
		C184.937,119.658,184.937,119.459,184.937,119.358z"/>
	<path display="none" fill="#F2F2F3" d="M231.921,49.682c-0.1,0.101-0.3,0.3-0.4,0.4c-0.1-0.101-0.1-0.101-0.2-0.2
		c0.1-0.1,0.3-0.3,0.4-0.399C231.921,49.682,231.921,49.682,231.921,49.682z"/>
	<path display="none" fill="#B1B1B6" d="M266.108,107.463c0-0.2,0-0.399,0-0.5c0.101,0,0.101,0,0.201,0c0,0.2,0,0.4,0,0.5
		C266.209,107.463,266.209,107.463,266.108,107.463z"/>
	<path display="none" fill="#B1B1B6" d="M197.333,39.386c0-0.2,0-0.4,0-0.5c0.2,0.2,0.4,0.399,0.5,0.5
		C197.733,39.386,197.533,39.386,197.333,39.386z"/>
	<path fill="#F2F2F3" d="M232.421,45.385c0.2,0.199,0.4,0.399,0.5,0.5c-0.2,0-0.4,0-0.5,0
		C232.421,45.684,232.421,45.584,232.421,45.385z"/>
	<path fill="#40404B" d="M197.933,56.68c1.2-0.899,2.499-0.4,3.799-0.5c0.3,0,0.5,0,0.899,0c0.1,0.3,0.2,0.6,0.3,0.899
		c0.1,0.101,0.1,0.101,0.2,0.2c1.2,0.2,2.399,0.6,3.499,0.5c2.099-0.1,3.999,0.699,5.898,1.499c0.899,0.4,1.799,1.1,2.399,1.899
		c1.799,2,3.999,3.499,6.398,4.698c2.699,1.399,4.998,1.7,7.597,0.601c0.9-0.4,1.699-0.301,2.499-0.5c0,0.3,0,0.5,0,0.8
		c-0.4,0.199-0.8,0.3-1.1,0.6c-1,1.199-2.299,1.6-3.699,2.1c-1.399,0.499-2.599,0.1-3.999-0.2c-1.5-0.3-2.699-0.7-3.399-2.199
		c-0.3-0.7-1.299-1.1-1.999-1.699c-0.5-0.5-1.1-0.9-1.6-1.4c-2.299-2.898-2.599-2.299-5.698-2.898c-0.8-0.2-1.6-0.4-2.5-0.5
		c-0.899-0.1-1.799,0-2.699,0c-1-0.899-2-1.699-3.599-1.699C199.632,58.88,198.632,57.98,197.933,56.68z"/>
	<path fill="#343440" d="M232.421,64.777c0.2-0.199,0.4-0.399,0.5-0.499C232.821,64.477,232.621,64.578,232.421,64.777z"/>
	<path fill="#40404B" d="M231.321,65.877c0.2-0.199,0.399-0.399,0.5-0.499C231.721,65.477,231.521,65.677,231.321,65.877z"/>
	<path fill="#5E5E67" d="M268.208,8.697c1.4,0,2.699,0,4.099,0c0,0.5,0,0.899,0,1.499c-0.8,0-1.699,0-2.499,0c0,0.101,0,0.3,0,0.4
		c0.8,0.1,1.699,0.2,2.6,0.2c0,0.499,0,0.899,0,1.499c-0.9,0-1.8,0-2.6,0c0,0.1,0,0.3,0,0.4c0.8,0.1,1.6,0.1,2.6,0.199
		c0,0.4,0,0.8,0,1.5c-1.2,0.3-2.6,0-4.1,0.199C268.208,12.595,268.208,10.797,268.208,8.697z"/>
	<path fill="#4D4D57" d="M214.627,7.897c1.399,0.2,2.499,0.399,3.898,0.7c0.2,1.499,0.4,2.799,0.6,3.998c-0.6,0.6-1,1-1.4,1.399
		c-1.1,0-2.199,0-3.599,0c0.2-0.899,0.5-1.799,0.6-2.599C214.727,10.396,214.627,9.396,214.627,7.897z M217.226,12.395
		c0-0.899,0-1.699,0-2.599c-0.5,0-0.9,0-1.399,0c0,0.899,0,1.699,0,2.599C216.326,12.395,216.726,12.395,217.226,12.395z"/>
	<path fill="#54545E" d="M277.905,14.594c-0.4,0-0.9,0-1.5,0c-0.4-0.499-1-1.1-1.6-1.799c0.6-0.3,0.9-0.4,1.3-0.6
		c-0.399-0.6-0.8-1.2-1.399-2.1c0.8-0.5,1.399-0.8,1.999-1.199c-0.1-0.101-0.2-0.2-0.3-0.4c0.5,0,1.1,0,1.699,0
		c0.4,0.5,0.9,1,1.6,1.8c-0.6,0.3-0.899,0.399-1.299,0.6c0.399,0.6,0.799,1.199,1.398,2.1c-0.799,0.499-1.398,0.8-1.999,1.199
		C277.805,14.295,277.905,14.495,277.905,14.594z M277.705,12.895c0-0.199,0-0.3,0-0.5c-0.3,0.101-0.601,0.101-0.899,0.2
		c0,0.101,0,0.2,0,0.3C277.104,12.895,277.405,12.895,277.705,12.895z"/>
	<path fill="#3D3D49" d="M261.61,10.896c0,1.6,0,2.499,0,3.499c-0.3,0.1-0.6,0.1-0.899,0.199c0-1.999,0-3.898,0-5.897
		c0.399,0,0.8,0,1.2,0c0.499,0.8,0.999,1.699,1.499,2.599c0.1,0,0.2-0.1,0.399-0.1c0-0.8,0-1.699,0-2.599c0.4,0,0.7,0,1,0
		c0,1.999,0,3.898,0,6.098c-0.5-0.3-1-0.4-1.199-0.6C263.011,13.195,262.41,12.296,261.61,10.896z"/>
	<path fill="#464652" d="M198.333,11.896c-0.7,0-1.2,0-1.899,0c-0.1,0.699-0.1,1.299-0.2,2.099c-0.3,0-0.5,0.101-0.9,0.101
		c0-2,0-3.899,0-5.898c0.3,0,0.5,0,0.9-0.1c0,0.699,0,1.299,0,1.999c0.8,0,1.399,0.1,2.199,0.1c0-0.699,0-1.299,0-1.999
		c0.3-0.1,0.5-0.2,0.7-0.3c0.1,0.1,0.3,0.1,0.3,0.2c0,1.899,0,3.698,0,5.698c-0.1,0-0.4,0.1-0.8,0.199
		C198.533,13.296,198.433,12.595,198.333,11.896z"/>
	<path fill="#4D4D57" d="M241.718,8.697c1.199,0,2.398,0,3.498,0c0.7,1,0.7,1,0.7,2.599c-0.7,0.4-1.499,0.8-2.499,1.3
		c0,0.3-0.1,0.8-0.2,1.3c-0.499,0-0.899,0-1.399,0C241.718,12.296,241.718,10.596,241.718,8.697z M243.217,9.797
		c0,1.199,0.399,1.199,1.1,0.8c-0.1-0.3-0.1-0.5-0.2-0.8C243.917,9.797,243.717,9.797,243.217,9.797z"/>
	<path fill="#464652" d="M285.402,11.296c0.399,0.2,0.7,0.5,0.999,0.7c0.101,0.899,0.301,1.8-0.699,2.499c-0.699,0-1.5,0-2.199,0
		c-0.3-0.3-0.5-0.5-0.899-0.8c0.2-0.3,0.399-0.699,0.6-0.999c-0.2-1.1-0.399-2.2-0.6-3.399c1.199,0,2.099,0,3.198,0
		c0.2,0.2,0.5,0.6,1.1,1.199c-0.699,0.101-1.1,0.2-1.398,0.301c-0.301-1-1-0.4-1.6-0.4
		C284.103,11.096,284.603,11.496,285.402,11.296z M284.803,12.796c0-0.1,0-0.2,0-0.3c-0.399,0-0.7,0-1.1,0c0,0.1,0,0.2,0,0.3
		C284.103,12.796,284.503,12.796,284.803,12.796z"/>
	<path fill="#3D3D49" d="M235.319,8.697c0.6,0,1.1,0,1.9,0c0,1.799,1.699,3.299,1.1,5.398c-1.301,0.199-1.5-1.8-3-0.9
		c0,0.101-0.199,0.4-0.299,0.9c-0.4,0-0.9-0.101-1.5-0.101C234.12,12.095,234.72,10.396,235.319,8.697z M237.019,11.696
		c-0.399-0.6-0.699-1-1.199-1.699c0,0.899,0,1.299,0,1.899C236.22,11.796,236.519,11.796,237.019,11.696z"/>
	<path fill="#464652" d="M188.736,11.596c0.2,0.199,0.5,0.499,0.8,0.799c0.8-0.199,1.5-0.399,2.399-0.6
		c0.3,1.8-1.399,1.399-1.899,2.399c-0.8-0.399-1.5-0.8-2.299-1.3c0-1.199,0-2.299,0-3.499c0.4-0.399,0.8-0.799,1.399-1.399
		c0.9,0.2,1.799,0.5,2.799,0.7c0,0.6,0,1,0,1.699c-0.799-0.2-1.5-0.399-2.299-0.6C188.836,10.096,188.536,10.696,188.736,11.596z"/>
	<path fill="#66666F" d="M207.129,13.895c0-1.899,0-3.799,0-5.698c0.4,0,0.8,0,1.5,0c0,1.3,0,2.6,0,4.198c1,0,1.899,0,2.799,0
		c0,0.601,0,1,0,1.5C210.028,13.895,208.729,13.895,207.129,13.895z"/>
	<path fill="#30303D" d="M230.821,8.597c0,1.999,0,3.599,0,5.397c-0.3,0-0.5,0.101-1,0.101c0-0.7,0-1.399,0-2.1
		c-0.8,0-1.4,0-2.199,0c0,0.7,0,1.3,0,1.999c-0.4,0-0.7,0-1,0c0-1.699,0-3.398,0-5.198c0.1,0,0.4-0.1,0.8-0.3
		c0.1,0.7,0.2,1.399,0.2,2.199c0.6,0,1.199,0,1.999,0c0.1-0.5,0.1-1.199,0.2-1.899C230.021,8.697,230.321,8.697,230.821,8.597z"/>
	<path fill="#40404B" d="M250.214,11.896c0,0.8,0,1.399,0,2.099c-0.499,0-0.898,0-1.499,0c0-0.199-0.2-0.5-0.1-0.699
		c0.6-1.399,0.6-2.899,0.499-4.599c0.5,0,1-0.1,1.5-0.1s1.1,0,1.399,0c1.1,0.699,0.899,1.599,0.8,2.499c-0.3,0.3-0.5,0.5-0.8,0.8
		C251.614,11.896,251.114,11.896,250.214,11.896z M250.415,9.697c0,0.399,0,0.699,0,1.1c0.399-0.101,0.6-0.101,0.999-0.2
		c-0.101-0.4-0.101-0.7-0.2-0.899C250.914,9.697,250.714,9.697,250.415,9.697z"/>
	<path fill="#66666F" d="M202.831,8.197c0.5,0,0.899,0,1.399,0c0,1.999,0,3.898,0,5.798c-0.5,0-0.899,0-1.399,0
		C202.831,11.996,202.831,10.096,202.831,8.197z"/>
	<path fill="#3D3D49" d="M257.212,14.495c-0.3,0-0.6,0-0.899,0c0-1.999,0-3.898,0-5.798c0.3,0,0.6,0,0.899,0
		C257.212,10.596,257.212,12.595,257.212,14.495z"/>
	<path display="none" fill="#D2D2D5" d="M285.402,11.296c-0.8,0.101-1.2-0.199-1.6-0.899c0.601-0.1,1.3-0.6,1.6,0.4
		C285.402,10.996,285.402,11.196,285.402,11.296z"/>
	<path fill="#31313D" d="M243.217,99.065c-1.3,0.4-2.599,0.601-3.999,0.8c-4.598,0.7-9.296,1.6-13.195,4.499
		c-0.2,0.1-0.5,0.199-0.7,0.3c-0.7,0.399-1.5,0.8-2.199,1.199c-1.899-7.897-3.699-15.595-5.698-23.691
		c2.599-3.299,6.198-5.099,10.497-6.298c2.899-0.8,5.698-1.2,8.697-0.899c1.1,1.699,1.899,3.498,2.3,5.498
		c0.5,2.398,1.398,4.698,1.699,7.097c1.1,0.9,0.1,2.3,0.899,3.399c0.6,0.8,0.399,2.1,0.6,3.199
		C242.517,95.967,242.817,97.566,243.217,99.065z"/>
	<path fill="#30303D" d="M258.312,70.676c0.4,0.8,0.9,1.6,1.1,2.499c2,6.397,4.398,12.695,4.998,19.493
		c-4.398,0.3-8.697,1.699-13.595,3.599c-1.7,0.7-3.399,1.3-5.298,1.999c-0.4-2.299-0.9-4.398-1.3-6.497
		c-0.601-2.699-1-5.498-1.8-8.197c-0.699-2.6-1.499-5.099-2.499-7.598c-0.1-0.2,0-0.399,0-0.6c1.399-2.199,3.599-3.299,5.998-3.999
		c0.5-0.199,0.999-0.199,1.499-0.199c2.799,0,5.599,0,8.397,0C256.612,71.275,257.212,70.975,258.312,70.676z"/>
	<path display="none" fill="#5E5E67" d="M201.631,55.581c-0.5,0-1,0-1.6,0c0-0.4,0-0.7,0-1.1c0.6,0,1.1,0,1.6,0
		C201.631,54.881,201.631,55.281,201.631,55.581z"/>
	<path display="none" fill="#B1B1B6" d="M203.831,54.681c0.2,0,0.4,0,0.5,0c0,0.1,0,0.1,0,0.199c-0.2,0-0.4,0-0.5,0
		C203.831,54.881,203.831,54.781,203.831,54.681z"/>
	<path fill="#40404B" d="M219.925,136.153c0.3,1.1,0,1.799-1,2.099c-1-0.399-1.299-1.1-0.899-2.099
		C218.525,136.153,219.125,136.153,219.925,136.153z"/>
	<path fill="#54545E" d="M221.125,134.653c-0.8,0.3-1.399,0.4-2.099,0.7c0.1,0.1-0.3-0.3-0.8-0.7c0.4-0.5,0.7-0.8,1.1-1.399
		C219.825,133.553,220.225,133.954,221.125,134.653z"/>
	<path fill="#343440" d="M179.039,117.159c-0.2,0.2-0.4,0.4-0.5,0.5C178.639,117.559,178.839,117.359,179.039,117.159z"/>
	<path fill="#30303D" d="M196.833,23.192c-0.6,0-1,0-1.5,0c0-0.899,0-1.699,0-2.499c0.9-0.2,1.7-0.4,1.5,0.999
		C196.733,22.093,196.833,22.593,196.833,23.192z"/>
	<path fill="#40404B" d="M189.636,123.057c-0.3,0-0.5,0-0.8,0c0-0.5-0.1-0.899-0.1-1.5c0.3-0.1,0.6-0.1,1-0.199
		C189.636,122.057,189.636,122.557,189.636,123.057z"/>
	<path fill="#66666F" d="M276.505,21.192c1.1,0,1.699,0,2.4,0c-0.301,0.4-0.601,0.7-0.9,1.2
		C277.505,21.992,277.104,21.692,276.505,21.192z"/>
	<path fill="#3D3D49" d="M234.32,22.692c-0.2,0.399-0.399,0.8-0.5,1.3c-0.2,0-0.4,0-0.5,0c-0.2-0.4-0.3-0.9-0.5-1.3
		c-0.4-0.7-0.6-1.699,0.6-2.199C234.92,20.793,234.52,21.992,234.32,22.692z"/>
	<path fill="#4D4D57" d="M245.216,134.653c0.4,1,0.6,1.6,0.9,2.399c-0.8,0-1.3,0-2,0
		C244.517,136.253,244.816,135.653,245.216,134.653z"/>
	<path fill="#3D3D49" d="M185.437,121.058c0,0.3,0,0.6,0,0.899c-0.5,0-1,0-1.5,0c0-0.3,0-0.6,0-0.899
		C184.438,121.058,184.937,121.058,185.437,121.058z"/>
	<path fill="#464652" d="M181.139,118.359c0,0.399,0,0.5,0,0.899c-0.4,0-0.9,0.1-1.5,0.2c0-0.4-0.1-0.7-0.1-1
		C180.139,118.359,180.639,118.359,181.139,118.359z"/>
	<path fill="#5E5E67" d="M181.338,121.058c-0.7-0.2-1-0.301-1.299-0.4c0.3-0.1,0.5-0.2,0.8-0.2
		C180.938,120.458,181.039,120.658,181.338,121.058z"/>
	<path fill="#5E5E67" d="M180.039,120.458c-0.1-0.1-0.3-0.3-0.4-0.399c0.1-0.1,0.1-0.1,0.2-0.2c0.1,0.101,0.3,0.3,0.4,0.4
		C180.139,120.358,180.039,120.458,180.039,120.458z"/>
	<path display="none" fill="#343440" d="M194.634,122.057c-0.1-0.1-0.3-0.3-0.4-0.399c0.1-0.101,0.1-0.101,0.2-0.2
		c0.1,0.1,0.3,0.3,0.4,0.399C194.634,122.057,194.634,122.057,194.634,122.057z"/>
	<path display="none" fill="#F7F7F7" d="M217.226,12.395c-0.5,0-0.9,0-1.399,0c0-0.899,0-1.699,0-2.599c0.5,0,0.899,0,1.399,0
		C217.226,10.696,217.226,11.496,217.226,12.395z"/>
	<path display="none" fill="#DEDEE0" d="M277.705,12.895c-0.3,0-0.601,0-0.899,0c0-0.1,0-0.199,0-0.3c0.299-0.1,0.6-0.1,0.899-0.2
		C277.705,12.595,277.705,12.696,277.705,12.895z"/>
	<path display="none" fill="#DEDEE0" d="M243.217,9.797c0.399,0,0.7,0,1,0c0.1,0.3,0.1,0.5,0.2,0.8
		C243.616,10.996,243.217,10.996,243.217,9.797z"/>
	<path display="none" fill="#D2D2D5" d="M284.803,12.796c-0.399,0-0.7,0-1.1,0c0-0.1,0-0.2,0-0.3c0.399,0,0.7,0,1.1,0
		C284.803,12.595,284.803,12.696,284.803,12.796z"/>
	<path display="none" fill="#CFCFD2" d="M237.019,11.696c-0.5,0.1-0.799,0.2-1.199,0.3c0-0.6,0-1.1,0-1.899
		C236.319,10.696,236.619,11.096,237.019,11.696z"/>
	<path display="none" fill="#CBCBCE" d="M250.415,9.697c0.299,0,0.499,0,0.799,0c0.1,0.3,0.1,0.6,0.2,0.899
		c-0.399,0.1-0.6,0.1-0.999,0.2C250.415,10.396,250.415,10.096,250.415,9.697z"/>
</g>
</svg>
